  0
SECTION
  2
HEADER
  9
$ANGBASE
  50
0.0
  9
$ANGDIR
  70
1
  9
$MEASUREMENT
  70
0
  0
ENDSEC
  0
SECTION
  2
TABLES
  0
TABLE
  2
LTYPE
  70
4
  0
LTYPE
  5
40F
  2
CONTINUOUS
  70
0
  3
Solid line
  72
65
  73
0
  40
0.0
  0
LTYPE
  5
410
  2
DASHDOT
 70
0
  3
Dash Dot ____ _ ____ _
 72
65
 73
4
 40
2.0
 49
1.25
 49
-0.25
 49
0.25
 49
-0.25
  0
LTYPE
  5
411
  2
DASHED
 70
0
  3
Dashed __ __ __ __ __
 72
65
 73
2
 40
0.75
 49
0.5
 49
-0.25
  0
LTYPE
  5
43B
  2
DOTTED
 70
0
  3
Dotted .  .  .  .
 72
65
 73
2
 40
0.2
 49
0.0
 49
-0.2
  0
ENDTAB
  0
TABLE
  2
STYLE
  70
4
  0
STYLE
  2
KICAD
  70
0
  40
0
  41
1
  42
1
  50
0
  71
0
  3
isocp.shx
  0
STYLE
  2
KICADB
  70
0
  40
0
  41
1
  42
1
  50
0
  71
0
  3
isocp.shx
  0
STYLE
  2
KICADI
  70
0
  40
0
  41
1
  42
1
  50
15
  71
0
  3
isocp.shx
  0
STYLE
  2
KICADBI
  70
0
  40
0
  41
1
  42
1
  50
15
  71
0
  3
isocp.shx
  0
ENDTAB
  0
TABLE
  2
LAYER
  70
1
  0
LAYER
  2
BLACK
  70
0
  62
7
  6
CONTINUOUS
  0
ENDTAB
  0
ENDSEC
  0
SECTION
  2
ENTITIES
0
LINE
8
BLACK
6
CONTINUOUS
10
1.9943404724409448
20
-2.8203740157480315
11
1.9943405511811023
21
-2.8203740157480315
0
LINE
8
BLACK
6
CONTINUOUS
10
1.9943405511811023
20
-2.8203740157480315
11
2.7423720472440944
21
-2.8203740157480315
0
LINE
8
BLACK
6
CONTINUOUS
10
2.7423720472440944
20
-2.8203740157480315
11
2.7423720866141732
21
-2.8203740157480315
0
LINE
8
BLACK
6
CONTINUOUS
10
2.7423720866141732
20
-2.8203740157480315
11
2.742372125984252
21
-2.8203740157480315
0
LINE
8
BLACK
6
CONTINUOUS
10
2.742372125984252
20
-2.8203740157480315
11
2.7469711417322835
21
-2.8208926377952754
0
LINE
8
BLACK
6
CONTINUOUS
10
2.7469711417322835
20
-2.8208926377952754
11
2.7513394881889761
21
-2.8224215748031494
0
LINE
8
BLACK
6
CONTINUOUS
10
2.7513394881889761
20
-2.8224215748031494
11
2.7552581102362206
21
-2.8248841338582675
0
LINE
8
BLACK
6
CONTINUOUS
10
2.7552581102362206
20
-2.8248841338582675
11
2.7585305511811025
21
-2.8281568897637794
0
LINE
8
BLACK
6
CONTINUOUS
10
2.7585305511811025
20
-2.8281568897637794
11
2.7609927165354331
21
-2.8320757874015747
0
LINE
8
BLACK
6
CONTINUOUS
10
2.7609927165354331
20
-2.8320757874015747
11
2.7625212204724408
21
-2.836444251968504
0
LINE
8
BLACK
6
CONTINUOUS
10
2.7625212204724408
20
-2.836444251968504
11
2.7630367716535433
21
-2.8410204724409449
0
LINE
8
BLACK
6
CONTINUOUS
10
2.7630367716535433
20
-2.8410204724409449
11
2.7630413385826773
21
-2.8410433070866139
0
LINE
8
BLACK
6
CONTINUOUS
10
2.7630413385826773
20
-2.8410433070866139
11
2.7630413385826773
21
-4.081200787401575
0
LINE
8
BLACK
6
CONTINUOUS
10
2.7630413385826773
20
-4.081200787401575
11
2.7625231496062992
21
-4.0858002755905511
0
LINE
8
BLACK
6
CONTINUOUS
10
2.7625231496062992
20
-4.0858002755905511
11
2.7609944881889765
21
-4.0901691732283467
0
LINE
8
BLACK
6
CONTINUOUS
10
2.7609944881889765
20
-4.0901691732283467
11
2.7585320866141734
21
-4.0940884251968503
0
LINE
8
BLACK
6
CONTINUOUS
10
2.7585320866141734
20
-4.0940884251968503
11
2.7552593307086615
21
-4.0973614960629918
0
LINE
8
BLACK
6
CONTINUOUS
10
2.7552593307086615
20
-4.0973614960629918
11
2.7513403149606299
21
-4.0998242913385825
0
LINE
8
BLACK
6
CONTINUOUS
10
2.7513403149606299
20
-4.0998242913385825
11
2.7469715748031494
21
-4.1013533858267719
0
LINE
8
BLACK
6
CONTINUOUS
10
2.7469715748031494
20
-4.1013533858267719
11
2.7423721653543307
21
-4.1018720472440942
0
LINE
8
BLACK
6
CONTINUOUS
10
2.7423721653543307
20
-4.1018720472440942
11
2.742372125984252
21
-4.1018700787401574
0
LINE
8
BLACK
6
CONTINUOUS
10
2.742372125984252
20
-4.1018700787401574
11
2.7423720866141732
21
-4.1018700393700787
0
LINE
8
BLACK
6
CONTINUOUS
10
2.7423720866141732
20
-4.1018700393700787
11
2.7423720472440944
21
-4.1018700787401574
0
LINE
8
BLACK
6
CONTINUOUS
10
2.7423720472440944
20
-4.1018700787401574
11
1.9943405511811023
21
-4.1018700787401574
0
LINE
8
BLACK
6
CONTINUOUS
10
1.9943405511811023
20
-4.1018700787401574
11
1.9943404724409448
21
-4.1018700393700787
0
LINE
8
BLACK
6
CONTINUOUS
10
1.9943404724409448
20
-4.1018700393700787
11
1.9943404724409448
21
-4.1018700787401574
0
LINE
8
BLACK
6
CONTINUOUS
10
1.9943404724409448
20
-4.1018700787401574
11
1.9897414566929132
21
-4.101351456692913
0
LINE
8
BLACK
6
CONTINUOUS
10
1.9897414566929132
20
-4.101351456692913
11
1.9853731102362204
21
-4.0998225196850395
0
LINE
8
BLACK
6
CONTINUOUS
10
1.9853731102362204
20
-4.0998225196850395
11
1.9814544881889764
21
-4.0973599606299214
0
LINE
8
BLACK
6
CONTINUOUS
10
1.9814544881889764
20
-4.0973599606299214
11
1.9781820472440945
21
-4.094087204724409
0
LINE
8
BLACK
6
CONTINUOUS
10
1.9781820472440945
20
-4.094087204724409
11
1.9757198818897637
21
-4.0901683070866142
0
LINE
8
BLACK
6
CONTINUOUS
10
1.9757198818897637
20
-4.0901683070866142
11
1.9741913779527558
21
-4.0857998425196849
0
LINE
8
BLACK
6
CONTINUOUS
10
1.9741913779527558
20
-4.0857998425196849
11
1.9736757874015747
21
-4.0812235826771657
0
LINE
8
BLACK
6
CONTINUOUS
10
1.9736757874015747
20
-4.0812235826771657
11
1.9736712598425197
21
-4.081200787401575
0
LINE
8
BLACK
6
CONTINUOUS
10
1.9736712598425197
20
-4.081200787401575
11
1.9736712598425197
21
-2.8410433070866139
0
LINE
8
BLACK
6
CONTINUOUS
10
1.9736712598425197
20
-2.8410433070866139
11
1.9741894488188976
21
-2.8364438188976377
0
LINE
8
BLACK
6
CONTINUOUS
10
1.9741894488188976
20
-2.8364438188976377
11
1.9757181102362205
21
-2.8320749212598426
0
LINE
8
BLACK
6
CONTINUOUS
10
1.9757181102362205
20
-2.8320749212598426
11
1.9781805118110236
21
-2.8281556692913385
0
LINE
8
BLACK
6
CONTINUOUS
10
1.9781805118110236
20
-2.8281556692913385
11
1.9814532677165353
21
-2.8248825984251966
0
LINE
8
BLACK
6
CONTINUOUS
10
1.9814532677165353
20
-2.8248825984251966
11
1.9853722834645668
21
-2.8224198031496064
0
LINE
8
BLACK
6
CONTINUOUS
10
1.9853722834645668
20
-2.8224198031496064
11
1.9897410236220472
21
-2.8208907086614174
0
LINE
8
BLACK
6
CONTINUOUS
10
1.9897410236220472
20
-2.8208907086614174
11
1.9943404330708661
21
-2.8203720472440943
0
LINE
8
BLACK
6
CONTINUOUS
10
1.9943404330708661
20
-2.8203720472440943
11
1.9943404724409448
21
-2.8203740157480315
0
LINE
8
BLACK
6
CONTINUOUS
10
1.9918785433070865
20
-2.8223407874015747
11
1.9871222047244095
21
-2.8236156692913386
0
LINE
8
BLACK
6
CONTINUOUS
10
1.9871222047244095
20
-2.8236156692913386
11
1.9828578740157481
21
-2.8260780708661417
0
LINE
8
BLACK
6
CONTINUOUS
10
1.9828578740157481
20
-2.8260780708661417
11
1.9793761023622047
21
-2.8295601574803149
0
LINE
8
BLACK
6
CONTINUOUS
10
1.9793761023622047
20
-2.8295601574803149
11
1.9769141338582676
21
-2.8338247637795275
0
LINE
8
BLACK
6
CONTINUOUS
10
1.9769141338582676
20
-2.8338247637795275
11
1.9756397637795275
21
-2.838581181102362
0
LINE
8
BLACK
6
CONTINUOUS
10
1.9756397637795275
20
-2.838581181102362
11
1.9756397637795275
21
-2.8410433070866139
0
LINE
8
BLACK
6
CONTINUOUS
10
1.9756397637795275
20
-2.8410433070866139
11
1.9756397637795275
21
-4.081200787401575
0
LINE
8
BLACK
6
CONTINUOUS
10
1.9756397637795275
20
-4.081200787401575
11
1.9756417322834645
21
-4.081200787401575
0
LINE
8
BLACK
6
CONTINUOUS
10
1.9756417322834645
20
-4.081200787401575
11
1.9756416929133858
21
-4.0836626377952756
0
LINE
8
BLACK
6
CONTINUOUS
10
1.9756416929133858
20
-4.0836626377952756
11
1.9769159842519684
21
-4.0884185826771651
0
LINE
8
BLACK
6
CONTINUOUS
10
1.9769159842519684
20
-4.0884185826771651
11
1.9793776771653542
21
-4.0926827165354327
0
LINE
8
BLACK
6
CONTINUOUS
10
1.9793776771653542
20
-4.0926827165354327
11
1.982859094488189
21
-4.0961644881889763
0
LINE
8
BLACK
6
CONTINUOUS
10
1.982859094488189
20
-4.0961644881889763
11
1.9871229921259843
21
-4.0986266141732282
0
LINE
8
BLACK
6
CONTINUOUS
10
1.9871229921259843
20
-4.0986266141732282
11
1.991878779527559
21
-4.0999013779527562
0
LINE
8
BLACK
6
CONTINUOUS
10
1.991878779527559
20
-4.0999013779527562
11
1.9943406692913386
21
-4.0999015748031491
0
LINE
8
BLACK
6
CONTINUOUS
10
1.9943406692913386
20
-4.0999015748031491
11
2.7423720472440944
21
-4.0999015748031491
0
LINE
8
BLACK
6
CONTINUOUS
10
2.7423720472440944
20
-4.0999015748031491
11
2.7423819291338583
21
-4.099903503937008
0
LINE
8
BLACK
6
CONTINUOUS
10
2.7423819291338583
20
-4.099903503937008
11
2.7448340551181101
21
-4.0999033070866142
0
LINE
8
BLACK
6
CONTINUOUS
10
2.7448340551181101
20
-4.0999033070866142
11
2.7495903937007875
21
-4.0986284251968499
0
LINE
8
BLACK
6
CONTINUOUS
10
2.7495903937007875
20
-4.0986284251968499
11
2.7538547244094489
21
-4.0961660236220467
0
LINE
8
BLACK
6
CONTINUOUS
10
2.7538547244094489
20
-4.0961660236220467
11
2.757336496062992
21
-4.092683937007874
0
LINE
8
BLACK
6
CONTINUOUS
10
2.757336496062992
20
-4.092683937007874
11
2.7597984645669289
21
-4.0884193307086614
0
LINE
8
BLACK
6
CONTINUOUS
10
2.7597984645669289
20
-4.0884193307086614
11
2.7610728346456694
21
-4.0836629133858269
0
LINE
8
BLACK
6
CONTINUOUS
10
2.7610728346456694
20
-4.0836629133858269
11
2.7610728346456694
21
-4.081200787401575
0
LINE
8
BLACK
6
CONTINUOUS
10
2.7610728346456694
20
-4.081200787401575
11
2.7610728346456694
21
-2.8410433070866139
0
LINE
8
BLACK
6
CONTINUOUS
10
2.7610728346456694
20
-2.8410433070866139
11
2.7610708661417322
21
-2.8410433070866139
0
LINE
8
BLACK
6
CONTINUOUS
10
2.7610708661417322
20
-2.8410433070866139
11
2.761070905511811
21
-2.8385814566929133
0
LINE
8
BLACK
6
CONTINUOUS
10
2.761070905511811
20
-2.8385814566929133
11
2.7597966141732284
21
-2.8338255118110234
0
LINE
8
BLACK
6
CONTINUOUS
10
2.7597966141732284
20
-2.8338255118110234
11
2.7573349212598424
21
-2.8295613779527558
0
LINE
8
BLACK
6
CONTINUOUS
10
2.7573349212598424
20
-2.8295613779527558
11
2.753853503937008
21
-2.8260796062992126
0
LINE
8
BLACK
6
CONTINUOUS
10
2.753853503937008
20
-2.8260796062992126
11
2.7495896062992125
21
-2.8236174803149607
0
LINE
8
BLACK
6
CONTINUOUS
10
2.7495896062992125
20
-2.8236174803149607
11
2.7448338188976376
21
-2.8223427165354331
0
LINE
8
BLACK
6
CONTINUOUS
10
2.7448338188976376
20
-2.8223427165354331
11
2.7423719291338582
21
-2.8223425196850394
0
LINE
8
BLACK
6
CONTINUOUS
10
2.7423719291338582
20
-2.8223425196850394
11
1.9943406299212598
21
-2.8223425196850394
0
LINE
8
BLACK
6
CONTINUOUS
10
1.9943406299212598
20
-2.8223425196850394
11
1.9943405511811023
21
-2.8223425196850394
0
LINE
8
BLACK
6
CONTINUOUS
10
1.9943405511811023
20
-2.8223425196850394
11
1.9943306299212598
21
-2.8223405511811022
0
LINE
8
BLACK
6
CONTINUOUS
10
1.9943306299212598
20
-2.8223405511811022
11
1.9918785433070865
21
-2.8223407874015747
0
LINE
8
BLACK
6
CONTINUOUS
10
5.0931348425196852
20
-1.4077263779527558
11
5.0931348818897639
21
-1.4077263779527558
0
LINE
8
BLACK
6
CONTINUOUS
10
5.0931348818897639
20
-1.4077263779527558
11
5.1006216535433069
21
-1.4083157480314961
0
LINE
8
BLACK
6
CONTINUOUS
10
5.1006216535433069
20
-1.4083157480314961
11
5.1079240551181098
21
-1.4100690157480316
0
LINE
8
BLACK
6
CONTINUOUS
10
5.1079240551181098
20
-1.4100690157480316
11
5.1148623228346457
21
-1.4129430314960629
0
LINE
8
BLACK
6
CONTINUOUS
10
5.1148623228346457
20
-1.4129430314960629
11
5.1212655511811018
21
-1.416866968503937
0
LINE
8
BLACK
6
CONTINUOUS
10
5.1212655511811018
20
-1.416866968503937
11
5.1269761417322837
21
-1.4217443307086615
0
LINE
8
BLACK
6
CONTINUOUS
10
5.1269761417322837
20
-1.4217443307086615
11
5.1318535039370081
21
-1.4274549212598424
0
LINE
8
BLACK
6
CONTINUOUS
10
5.1318535039370081
20
-1.4274549212598424
11
5.1357774409448815
21
-1.4338581496062992
0
LINE
8
BLACK
6
CONTINUOUS
10
5.1357774409448815
20
-1.4338581496062992
11
5.1386514566929131
21
-1.4407964173228347
0
LINE
8
BLACK
6
CONTINUOUS
10
5.1386514566929131
20
-1.4407964173228347
11
5.1404047244094491
21
-1.4480988188976378
0
LINE
8
BLACK
6
CONTINUOUS
10
5.1404047244094491
20
-1.4480988188976378
11
5.1409940944881889
21
-1.455585590551181
0
LINE
8
BLACK
6
CONTINUOUS
10
5.1409940944881889
20
-1.455585590551181
11
5.1409940551181101
21
-1.4555856299212597
0
LINE
8
BLACK
6
CONTINUOUS
10
5.1409940551181101
20
-1.4555856299212597
11
5.1409940944881889
21
-1.4555856692913385
0
LINE
8
BLACK
6
CONTINUOUS
10
5.1409940944881889
20
-1.4555856692913385
11
5.1409960629921256
21
-1.4555856692913385
0
LINE
8
BLACK
6
CONTINUOUS
10
5.1409960629921256
20
-1.4555856692913385
11
5.1409959842519681
21
-1.4596004724409448
0
LINE
8
BLACK
6
CONTINUOUS
10
5.1409959842519681
20
-1.4596004724409448
11
5.1423901574803148
21
-1.4675081889763779
0
LINE
8
BLACK
6
CONTINUOUS
10
5.1423901574803148
20
-1.4675081889763779
11
5.1451362992125986
21
-1.4750536614173229
0
LINE
8
BLACK
6
CONTINUOUS
10
5.1451362992125986
20
-1.4750536614173229
11
5.1491509842519685
21
-1.4820076377952756
0
LINE
8
BLACK
6
CONTINUOUS
10
5.1491509842519685
20
-1.4820076377952756
11
5.1543122440944877
21
-1.4881588188976378
0
LINE
8
BLACK
6
CONTINUOUS
10
5.1543122440944877
20
-1.4881588188976378
11
5.1604632283464564
21
-1.4933203149606298
0
LINE
8
BLACK
6
CONTINUOUS
10
5.1604632283464564
20
-1.4933203149606298
11
5.1674170078740156
21
-1.4973353149606299
0
LINE
8
BLACK
6
CONTINUOUS
10
5.1674170078740156
20
-1.4973353149606299
11
5.1749624015748035
21
-1.5000817716535433
0
LINE
8
BLACK
6
CONTINUOUS
10
5.1749624015748035
20
-1.5000817716535433
11
5.1828700393700791
21
-1.5014762598425198
0
LINE
8
BLACK
6
CONTINUOUS
10
5.1828700393700791
20
-1.5014762598425198
11
5.1868848818897639
21
-1.5014763779527558
0
LINE
8
BLACK
6
CONTINUOUS
10
5.1868848818897639
20
-1.5014763779527558
11
5.8431348425196852
21
-1.5014763779527558
0
LINE
8
BLACK
6
CONTINUOUS
10
5.8431348425196852
20
-1.5014763779527558
11
5.8431348818897639
21
-1.5014763779527558
0
LINE
8
BLACK
6
CONTINUOUS
10
5.8431348818897639
20
-1.5014763779527558
11
5.8506215354330706
21
-1.5020657480314961
0
LINE
8
BLACK
6
CONTINUOUS
10
5.8506215354330706
20
-1.5020657480314961
11
5.8579238188976372
21
-1.5038190551181101
0
LINE
8
BLACK
6
CONTINUOUS
10
5.8579238188976372
20
-1.5038190551181101
11
5.8648619685039369
21
-1.5066930708661417
0
LINE
8
BLACK
6
CONTINUOUS
10
5.8648619685039369
20
-1.5066930708661417
11
5.8712650393700789
21
-1.5106170866141733
0
LINE
8
BLACK
6
CONTINUOUS
10
5.8712650393700789
20
-1.5106170866141733
11
5.8769754724409449
21
-1.5154944488188975
0
LINE
8
BLACK
6
CONTINUOUS
10
5.8769754724409449
20
-1.5154944488188975
11
5.8818525984251968
21
-1.5212050787401574
0
LINE
8
BLACK
6
CONTINUOUS
10
5.8818525984251968
20
-1.5212050787401574
11
5.8857763385826773
21
-1.527608346456693
0
LINE
8
BLACK
6
CONTINUOUS
10
5.8857763385826773
20
-1.527608346456693
11
5.8886500787401577
21
-1.5345465748031495
0
LINE
8
BLACK
6
CONTINUOUS
10
5.8886500787401577
20
-1.5345465748031495
11
5.8904030708661415
21
-1.5418489370078741
0
LINE
8
BLACK
6
CONTINUOUS
10
5.8904030708661415
20
-1.5418489370078741
11
5.8909908267716533
21
-1.5493192125984252
0
LINE
8
BLACK
6
CONTINUOUS
10
5.8909908267716533
20
-1.5493192125984252
11
5.8909940944881889
21
-1.5493356299212597
0
LINE
8
BLACK
6
CONTINUOUS
10
5.8909940944881889
20
-1.5493356299212597
11
5.8909940944881889
21
-1.6430856299212597
0
LINE
8
BLACK
6
CONTINUOUS
10
5.8909940944881889
20
-1.6430856299212597
11
5.8909940944881889
21
-1.6430856692913385
0
LINE
8
BLACK
6
CONTINUOUS
10
5.8909940944881889
20
-1.6430856692913385
11
5.8909960629921256
21
-1.6430856692913385
0
LINE
8
BLACK
6
CONTINUOUS
10
5.8909960629921256
20
-1.6430856692913385
11
5.8909959842519681
21
-1.6471004724409448
0
LINE
8
BLACK
6
CONTINUOUS
10
5.8909959842519681
20
-1.6471004724409448
11
5.8923901574803148
21
-1.6550081889763779
0
LINE
8
BLACK
6
CONTINUOUS
10
5.8923901574803148
20
-1.6550081889763779
11
5.8951362992125986
21
-1.6625536614173229
0
LINE
8
BLACK
6
CONTINUOUS
10
5.8951362992125986
20
-1.6625536614173229
11
5.8991509842519685
21
-1.6695076377952756
0
LINE
8
BLACK
6
CONTINUOUS
10
5.8991509842519685
20
-1.6695076377952756
11
5.9043122440944877
21
-1.6756588188976378
0
LINE
8
BLACK
6
CONTINUOUS
10
5.9043122440944877
20
-1.6756588188976378
11
5.9104632283464564
21
-1.6808203149606298
0
LINE
8
BLACK
6
CONTINUOUS
10
5.9104632283464564
20
-1.6808203149606298
11
5.9174170078740156
21
-1.6848353149606299
0
LINE
8
BLACK
6
CONTINUOUS
10
5.9174170078740156
20
-1.6848353149606299
11
5.9249624015748026
21
-1.6875817716535433
0
LINE
8
BLACK
6
CONTINUOUS
10
5.9249624015748026
20
-1.6875817716535433
11
5.9328700393700782
21
-1.6889762598425198
0
LINE
8
BLACK
6
CONTINUOUS
10
5.9328700393700782
20
-1.6889762598425198
11
5.9368848818897639
21
-1.6889763779527558
0
LINE
8
BLACK
6
CONTINUOUS
10
5.9368848818897639
20
-1.6889763779527558
11
6.5931348425196852
21
-1.6889763779527558
0
LINE
8
BLACK
6
CONTINUOUS
10
6.5931348425196852
20
-1.6889763779527558
11
6.5931348818897639
21
-1.6889763779527558
0
LINE
8
BLACK
6
CONTINUOUS
10
6.5931348818897639
20
-1.6889763779527558
11
6.6006215354330706
21
-1.6895657480314961
0
LINE
8
BLACK
6
CONTINUOUS
10
6.6006215354330706
20
-1.6895657480314961
11
6.6079238188976372
21
-1.6913190551181101
0
LINE
8
BLACK
6
CONTINUOUS
10
6.6079238188976372
20
-1.6913190551181101
11
6.6148619685039369
21
-1.6941930708661417
0
LINE
8
BLACK
6
CONTINUOUS
10
6.6148619685039369
20
-1.6941930708661417
11
6.6212650393700789
21
-1.6981170866141733
0
LINE
8
BLACK
6
CONTINUOUS
10
6.6212650393700789
20
-1.6981170866141733
11
6.6269754724409449
21
-1.7029944488188975
0
LINE
8
BLACK
6
CONTINUOUS
10
6.6269754724409449
20
-1.7029944488188975
11
6.6318525984251968
21
-1.7087050787401574
0
LINE
8
BLACK
6
CONTINUOUS
10
6.6318525984251968
20
-1.7087050787401574
11
6.6357763385826773
21
-1.715108346456693
0
LINE
8
BLACK
6
CONTINUOUS
10
6.6357763385826773
20
-1.715108346456693
11
6.6386500787401577
21
-1.7220465748031495
0
LINE
8
BLACK
6
CONTINUOUS
10
6.6386500787401577
20
-1.7220465748031495
11
6.6404030708661415
21
-1.7293489370078741
0
LINE
8
BLACK
6
CONTINUOUS
10
6.6404030708661415
20
-1.7293489370078741
11
6.6409908267716533
21
-1.7368192125984252
0
LINE
8
BLACK
6
CONTINUOUS
10
6.6409908267716533
20
-1.7368192125984252
11
6.6409940944881889
21
-1.7368356299212597
0
LINE
8
BLACK
6
CONTINUOUS
10
6.6409940944881889
20
-1.7368356299212597
11
6.6409940944881889
21
-3.893085590551181
0
LINE
8
BLACK
6
CONTINUOUS
10
6.6409940944881889
20
-3.893085590551181
11
6.6404049999999994
21
-3.9005725984251969
0
LINE
8
BLACK
6
CONTINUOUS
10
6.6404049999999994
20
-3.9005725984251969
11
6.6386519685039369
21
-3.907875275590551
0
LINE
8
BLACK
6
CONTINUOUS
10
6.6386519685039369
20
-3.907875275590551
11
6.6357781102362203
21
-3.9148138188976378
0
LINE
8
BLACK
6
CONTINUOUS
10
6.6357781102362203
20
-3.9148138188976378
11
6.6318542125984248
21
-3.9212173228346456
0
LINE
8
BLACK
6
CONTINUOUS
10
6.6318542125984248
20
-3.9212173228346456
11
6.6269768503937003
21
-3.9269281889763779
0
LINE
8
BLACK
6
CONTINUOUS
10
6.6269768503937003
20
-3.9269281889763779
11
6.6212662204724406
21
-3.9318057874015748
0
LINE
8
BLACK
6
CONTINUOUS
10
6.6212662204724406
20
-3.9318057874015748
11
6.6148628346456695
21
-3.9357299212598424
0
LINE
8
BLACK
6
CONTINUOUS
10
6.6148628346456695
20
-3.9357299212598424
11
6.6079244488188973
21
-3.938604094488189
0
LINE
8
BLACK
6
CONTINUOUS
10
6.6079244488188973
20
-3.938604094488189
11
6.6006218503937006
21
-3.9403574409448816
0
LINE
8
BLACK
6
CONTINUOUS
10
6.6006218503937006
20
-3.9403574409448816
11
6.5931348818897639
21
-3.9409468503937006
0
LINE
8
BLACK
6
CONTINUOUS
10
6.5931348818897639
20
-3.9409468503937006
11
6.5931348818897639
21
-3.9409448818897639
0
LINE
8
BLACK
6
CONTINUOUS
10
6.5931348818897639
20
-3.9409448818897639
11
6.5931348425196852
21
-3.9409448425196851
0
LINE
8
BLACK
6
CONTINUOUS
10
6.5931348425196852
20
-3.9409448425196851
11
6.5931348425196852
21
-3.9409448818897639
0
LINE
8
BLACK
6
CONTINUOUS
10
6.5931348425196852
20
-3.9409448818897639
11
5.187571141732283
21
-3.9409448818897639
0
LINE
8
BLACK
6
CONTINUOUS
10
5.187571141732283
20
-3.9409448818897639
11
4.8596834251968506
21
-4.830925905511811
0
LINE
8
BLACK
6
CONTINUOUS
10
4.8596834251968506
20
-4.830925905511811
11
4.8596691732283466
21
-4.8309491732283467
0
LINE
8
BLACK
6
CONTINUOUS
10
4.8596691732283466
20
-4.8309491732283467
11
4.8596691732283466
21
-4.8309622834645669
0
LINE
8
BLACK
6
CONTINUOUS
10
4.8596691732283466
20
-4.8309622834645669
11
4.8596484645669289
21
-4.8309829527559058
0
LINE
8
BLACK
6
CONTINUOUS
10
4.8596484645669289
20
-4.8309829527559058
11
4.8594829133858264
21
-4.8312534251968504
0
LINE
8
BLACK
6
CONTINUOUS
10
4.8594829133858264
20
-4.8312534251968504
11
4.8592881102362204
21
-4.8313433070866143
0
LINE
8
BLACK
6
CONTINUOUS
10
4.8592881102362204
20
-4.8313433070866143
11
4.8591364960629919
21
-4.8314949606299216
0
LINE
8
BLACK
6
CONTINUOUS
10
4.8591364960629919
20
-4.8314949606299216
11
4.8588254724409445
21
-4.8315568110236216
0
LINE
8
BLACK
6
CONTINUOUS
10
4.8588254724409445
20
-4.8315568110236216
11
4.8587988976377954
21
-4.8315690944881888
0
LINE
8
BLACK
6
CONTINUOUS
10
4.8587988976377954
20
-4.8315690944881888
11
4.8587865748031493
21
-4.8315645275590553
0
LINE
8
BLACK
6
CONTINUOUS
10
4.8587865748031493
20
-4.8315645275590553
11
4.8587598425196852
21
-4.8315698818897639
0
LINE
8
BLACK
6
CONTINUOUS
10
4.8587598425196852
20
-4.8315698818897639
11
4.0150961023622047
21
-4.8315698818897639
0
LINE
8
BLACK
6
CONTINUOUS
10
4.0150961023622047
20
-4.8315698818897639
11
3.2183771653543305
21
-4.9721673228346459
0
LINE
8
BLACK
6
CONTINUOUS
10
3.2183771653543305
20
-4.9721673228346459
11
2.3746961023622046
21
-5.2533943700787402
0
LINE
8
BLACK
6
CONTINUOUS
10
2.3746961023622046
20
-5.2533943700787402
11
2.374383188976378
21
-5.2534337795275592
0
LINE
8
BLACK
6
CONTINUOUS
10
2.374383188976378
20
-5.2534337795275592
11
2.374355157480315
21
-5.2534444488188976
0
LINE
8
BLACK
6
CONTINUOUS
10
2.374355157480315
20
-5.2534444488188976
11
2.3743427952755907
21
-5.2534388976377953
0
LINE
8
BLACK
6
CONTINUOUS
10
2.3743427952755907
20
-5.2534388976377953
11
2.3743150787401572
21
-5.2534424015748034
0
LINE
8
BLACK
6
CONTINUOUS
10
2.3743150787401572
20
-5.2534424015748034
11
2.3739953149606299
21
-5.2532825196850395
0
LINE
8
BLACK
6
CONTINUOUS
10
2.3739953149606299
20
-5.2532825196850395
11
2.373668188976378
21
-5.2531353149606295
0
LINE
8
BLACK
6
CONTINUOUS
10
2.373668188976378
20
-5.2531353149606295
11
2.3736532677165352
21
-5.2531114960629921
0
LINE
8
BLACK
6
CONTINUOUS
10
2.3736532677165352
20
-5.2531114960629921
11
2.3736412992125984
21
-5.2531055118110235
0
LINE
8
BLACK
6
CONTINUOUS
10
2.3736412992125984
20
-5.2531055118110235
11
2.3736318503937008
21
-5.253077244094488
0
LINE
8
BLACK
6
CONTINUOUS
10
2.3736318503937008
20
-5.253077244094488
11
2.3734645669291337
21
-5.2528097244094489
0
LINE
8
BLACK
6
CONTINUOUS
10
2.3734645669291337
20
-5.2528097244094489
11
1.8578395669291339
21
-3.8934346850393702
0
LINE
8
BLACK
6
CONTINUOUS
10
1.8578395669291339
20
-3.8934346850393702
11
1.857810157480315
21
-3.8932594488188976
0
LINE
8
BLACK
6
CONTINUOUS
10
1.857810157480315
20
-3.8932594488188976
11
1.857775590551181
21
-3.8930856299212597
0
LINE
8
BLACK
6
CONTINUOUS
10
1.857775590551181
20
-3.8930856299212597
11
1.857775590551181
21
-1.6430856299212597
0
LINE
8
BLACK
6
CONTINUOUS
10
1.857775590551181
20
-1.6430856299212597
11
1.857775590551181
21
-1.643085590551181
0
LINE
8
BLACK
6
CONTINUOUS
10
1.857775590551181
20
-1.643085590551181
11
1.8583649606299213
21
-1.6355989370078741
0
LINE
8
BLACK
6
CONTINUOUS
10
1.8583649606299213
20
-1.6355989370078741
11
1.8601182677165353
21
-1.628296653543307
0
LINE
8
BLACK
6
CONTINUOUS
10
1.8601182677165353
20
-1.628296653543307
11
1.8629922834645669
21
-1.6213585039370078
0
LINE
8
BLACK
6
CONTINUOUS
10
1.8629922834645669
20
-1.6213585039370078
11
1.8669162992125983
21
-1.6149554330708662
0
LINE
8
BLACK
6
CONTINUOUS
10
1.8669162992125983
20
-1.6149554330708662
11
1.8717936614173227
21
-1.609245
0
LINE
8
BLACK
6
CONTINUOUS
10
1.8717936614173227
20
-1.609245
11
1.8775042913385827
21
-1.6043678740157481
0
LINE
8
BLACK
6
CONTINUOUS
10
1.8775042913385827
20
-1.6043678740157481
11
1.883907559055118
21
-1.6004441338582678
0
LINE
8
BLACK
6
CONTINUOUS
10
1.883907559055118
20
-1.6004441338582678
11
1.8908457874015747
21
-1.5975703937007875
0
LINE
8
BLACK
6
CONTINUOUS
10
1.8908457874015747
20
-1.5975703937007875
11
1.8981481496062991
21
-1.595817401574803
0
LINE
8
BLACK
6
CONTINUOUS
10
1.8981481496062991
20
-1.595817401574803
11
1.9056184251968504
21
-1.5952296062992126
0
LINE
8
BLACK
6
CONTINUOUS
10
1.9056184251968504
20
-1.5952296062992126
11
1.905634842519685
21
-1.5952263779527558
0
LINE
8
BLACK
6
CONTINUOUS
10
1.905634842519685
20
-1.5952263779527558
11
3.5931348031496064
21
-1.5952263779527558
0
LINE
8
BLACK
6
CONTINUOUS
10
3.5931348031496064
20
-1.5952263779527558
11
3.5971497244094488
21
-1.595226338582677
0
LINE
8
BLACK
6
CONTINUOUS
10
3.5971497244094488
20
-1.595226338582677
11
3.6050575196850394
21
-1.593831811023622
0
LINE
8
BLACK
6
CONTINUOUS
10
3.6050575196850394
20
-1.593831811023622
11
3.6126030314960631
21
-1.5910853937007874
0
LINE
8
BLACK
6
CONTINUOUS
10
3.6126030314960631
20
-1.5910853937007874
11
3.6195570078740156
21
-1.587070433070866
0
LINE
8
BLACK
6
CONTINUOUS
10
3.6195570078740156
20
-1.587070433070866
11
3.625708188976378
21
-1.5819089763779528
0
LINE
8
BLACK
6
CONTINUOUS
10
3.625708188976378
20
-1.5819089763779528
11
3.630869645669291
21
-1.5757577952755906
0
LINE
8
BLACK
6
CONTINUOUS
10
3.630869645669291
20
-1.5757577952755906
11
3.6348846062992126
21
-1.5688038188976379
0
LINE
8
BLACK
6
CONTINUOUS
10
3.6348846062992126
20
-1.5688038188976379
11
3.6376310236220473
21
-1.5612583070866142
0
LINE
8
BLACK
6
CONTINUOUS
10
3.6376310236220473
20
-1.5612583070866142
11
3.6390255511811023
21
-1.5533505118110236
0
LINE
8
BLACK
6
CONTINUOUS
10
3.6390255511811023
20
-1.5533505118110236
11
3.639025590551181
21
-1.549335590551181
0
LINE
8
BLACK
6
CONTINUOUS
10
3.639025590551181
20
-1.549335590551181
11
3.639025590551181
21
-1.5493355511811022
0
LINE
8
BLACK
6
CONTINUOUS
10
3.639025590551181
20
-1.5493355511811022
11
3.63961468503937
21
-1.5418486614173228
0
LINE
8
BLACK
6
CONTINUOUS
10
3.63961468503937
20
-1.5418486614173228
11
3.641367716535433
21
-1.5345459842519684
0
LINE
8
BLACK
6
CONTINUOUS
10
3.641367716535433
20
-1.5345459842519684
11
3.6442415748031496
21
-1.5276074409448819
0
LINE
8
BLACK
6
CONTINUOUS
10
3.6442415748031496
20
-1.5276074409448819
11
3.6481654724409447
21
-1.521203937007874
0
LINE
8
BLACK
6
CONTINUOUS
10
3.6481654724409447
20
-1.521203937007874
11
3.6530428346456691
21
-1.5154930708661416
0
LINE
8
BLACK
6
CONTINUOUS
10
3.6530428346456691
20
-1.5154930708661416
11
3.6587534645669288
21
-1.5106154724409449
0
LINE
8
BLACK
6
CONTINUOUS
10
3.6587534645669288
20
-1.5106154724409449
11
3.6651568503937009
21
-1.5066913385826772
0
LINE
8
BLACK
6
CONTINUOUS
10
3.6651568503937009
20
-1.5066913385826772
11
3.6720952362204722
21
-1.5038171653543306
0
LINE
8
BLACK
6
CONTINUOUS
10
3.6720952362204722
20
-1.5038171653543306
11
3.6793978346456693
21
-1.5020638188976378
0
LINE
8
BLACK
6
CONTINUOUS
10
3.6793978346456693
20
-1.5020638188976378
11
3.6868848031496064
21
-1.5014744094488188
0
LINE
8
BLACK
6
CONTINUOUS
10
3.6868848031496064
20
-1.5014744094488188
11
3.6868848031496064
21
-1.5014763779527558
0
LINE
8
BLACK
6
CONTINUOUS
10
3.6868848031496064
20
-1.5014763779527558
11
3.6868848425196847
21
-1.5014763779527558
0
LINE
8
BLACK
6
CONTINUOUS
10
3.6868848425196847
20
-1.5014763779527558
11
4.3431348425196852
21
-1.5014763779527558
0
LINE
8
BLACK
6
CONTINUOUS
10
4.3431348425196852
20
-1.5014763779527558
11
4.3431447244094485
21
-1.5014783070866142
0
LINE
8
BLACK
6
CONTINUOUS
10
4.3431447244094485
20
-1.5014783070866142
11
4.3471498425196851
21
-1.5014782677165355
0
LINE
8
BLACK
6
CONTINUOUS
10
4.3471498425196851
20
-1.5014782677165355
11
4.3550578346456694
21
-1.5000837007874015
0
LINE
8
BLACK
6
CONTINUOUS
10
4.3550578346456694
20
-1.5000837007874015
11
4.3626035039370077
21
-1.4973371259842518
0
LINE
8
BLACK
6
CONTINUOUS
10
4.3626035039370077
20
-1.4973371259842518
11
4.3695576377952756
21
-1.4933219685039369
0
LINE
8
BLACK
6
CONTINUOUS
10
4.3695576377952756
20
-1.4933219685039369
11
4.3757088582677168
21
-1.4881602362204724
0
LINE
8
BLACK
6
CONTINUOUS
10
4.3757088582677168
20
-1.4881602362204724
11
4.3808703149606298
21
-1.4820087795275589
0
LINE
8
BLACK
6
CONTINUOUS
10
4.3808703149606298
20
-1.4820087795275589
11
4.3848851968503935
21
-1.4750545275590552
0
LINE
8
BLACK
6
CONTINUOUS
10
4.3848851968503935
20
-1.4750545275590552
11
4.3876314566929135
21
-1.4675087007874015
0
LINE
8
BLACK
6
CONTINUOUS
10
4.3876314566929135
20
-1.4675087007874015
11
4.3890257086614168
21
-1.4596006692913386
0
LINE
8
BLACK
6
CONTINUOUS
10
4.3890257086614168
20
-1.4596006692913386
11
4.3890255905511806
21
-1.4555856692913385
0
LINE
8
BLACK
6
CONTINUOUS
10
4.3890255905511806
20
-1.4555856692913385
11
4.3890255905511806
21
-1.4555856299212597
0
LINE
8
BLACK
6
CONTINUOUS
10
4.3890255905511806
20
-1.4555856299212597
11
4.3890255905511806
21
-1.455585590551181
0
LINE
8
BLACK
6
CONTINUOUS
10
4.3890255905511806
20
-1.455585590551181
11
4.3896149606299213
21
-1.4480988188976378
0
LINE
8
BLACK
6
CONTINUOUS
10
4.3896149606299213
20
-1.4480988188976378
11
4.3913682283464563
21
-1.4407964173228347
0
LINE
8
BLACK
6
CONTINUOUS
10
4.3913682283464563
20
-1.4407964173228347
11
4.3942422440944879
21
-1.4338581496062992
0
LINE
8
BLACK
6
CONTINUOUS
10
4.3942422440944879
20
-1.4338581496062992
11
4.3981661811023622
21
-1.4274549212598424
0
LINE
8
BLACK
6
CONTINUOUS
10
4.3981661811023622
20
-1.4274549212598424
11
4.4030435433070867
21
-1.4217443307086615
0
LINE
8
BLACK
6
CONTINUOUS
10
4.4030435433070867
20
-1.4217443307086615
11
4.4087541338582676
21
-1.416866968503937
0
LINE
8
BLACK
6
CONTINUOUS
10
4.4087541338582676
20
-1.416866968503937
11
4.4151573622047247
21
-1.4129430314960629
0
LINE
8
BLACK
6
CONTINUOUS
10
4.4151573622047247
20
-1.4129430314960629
11
4.4220956299212597
21
-1.4100690157480316
0
LINE
8
BLACK
6
CONTINUOUS
10
4.4220956299212597
20
-1.4100690157480316
11
4.4293980314960626
21
-1.4083157480314961
0
LINE
8
BLACK
6
CONTINUOUS
10
4.4293980314960626
20
-1.4083157480314961
11
4.4368848031496064
21
-1.4077263779527558
0
LINE
8
BLACK
6
CONTINUOUS
10
4.4368848031496064
20
-1.4077263779527558
11
4.4368848425196852
21
-1.4077263779527558
0
LINE
8
BLACK
6
CONTINUOUS
10
4.4368848425196852
20
-1.4077263779527558
11
5.0931348425196852
21
-1.4077263779527558
0
LINE
8
BLACK
6
CONTINUOUS
10
4.4368848818897639
20
-1.4096948818897637
11
4.4328699606299216
21
-1.4096949212598424
0
LINE
8
BLACK
6
CONTINUOUS
10
4.4328699606299216
20
-1.4096949212598424
11
4.424962165354331
21
-1.4110894488188976
0
LINE
8
BLACK
6
CONTINUOUS
10
4.424962165354331
20
-1.4110894488188976
11
4.4174166535433068
21
-1.4138358661417323
0
LINE
8
BLACK
6
CONTINUOUS
10
4.4174166535433068
20
-1.4138358661417323
11
4.4104626771653539
21
-1.4178508267716534
0
LINE
8
BLACK
6
CONTINUOUS
10
4.4104626771653539
20
-1.4178508267716534
11
4.4043114960629923
21
-1.4230122834645669
0
LINE
8
BLACK
6
CONTINUOUS
10
4.4043114960629923
20
-1.4230122834645669
11
4.3991500393700784
21
-1.4291634645669291
0
LINE
8
BLACK
6
CONTINUOUS
10
4.3991500393700784
20
-1.4291634645669291
11
4.3951350787401573
21
-1.4361174409448818
0
LINE
8
BLACK
6
CONTINUOUS
10
4.3951350787401573
20
-1.4361174409448818
11
4.3923886614173231
21
-1.4436629527559055
0
LINE
8
BLACK
6
CONTINUOUS
10
4.3923886614173231
20
-1.4436629527559055
11
4.3909941338582676
21
-1.4515707480314961
0
LINE
8
BLACK
6
CONTINUOUS
10
4.3909941338582676
20
-1.4515707480314961
11
4.3909940944881889
21
-1.455585590551181
0
LINE
8
BLACK
6
CONTINUOUS
10
4.3909940944881889
20
-1.455585590551181
11
4.3904050000000003
21
-1.4630725984251969
0
LINE
8
BLACK
6
CONTINUOUS
10
4.3904050000000003
20
-1.4630725984251969
11
4.3886519685039369
21
-1.4703752755905513
0
LINE
8
BLACK
6
CONTINUOUS
10
4.3886519685039369
20
-1.4703752755905513
11
4.3857781102362203
21
-1.4773138188976378
0
LINE
8
BLACK
6
CONTINUOUS
10
4.3857781102362203
20
-1.4773138188976378
11
4.3818542125984248
21
-1.4837173228346456
0
LINE
8
BLACK
6
CONTINUOUS
10
4.3818542125984248
20
-1.4837173228346456
11
4.3769768503937003
21
-1.4894281889763779
0
LINE
8
BLACK
6
CONTINUOUS
10
4.3769768503937003
20
-1.4894281889763779
11
4.3712662204724406
21
-1.4943057874015748
0
LINE
8
BLACK
6
CONTINUOUS
10
4.3712662204724406
20
-1.4943057874015748
11
4.3648628346456695
21
-1.4982299212598424
0
LINE
8
BLACK
6
CONTINUOUS
10
4.3648628346456695
20
-1.4982299212598424
11
4.3579244488188973
21
-1.501104094488189
0
LINE
8
BLACK
6
CONTINUOUS
10
4.3579244488188973
20
-1.501104094488189
11
4.3506218503937006
21
-1.5028574409448818
0
LINE
8
BLACK
6
CONTINUOUS
10
4.3506218503937006
20
-1.5028574409448818
11
4.3431348818897639
21
-1.5034468503937009
0
LINE
8
BLACK
6
CONTINUOUS
10
4.3431348818897639
20
-1.5034468503937009
11
4.3431348818897639
21
-1.5034448818897637
0
LINE
8
BLACK
6
CONTINUOUS
10
4.3431348818897639
20
-1.5034448818897637
11
4.3431348425196852
21
-1.5034448425196849
0
LINE
8
BLACK
6
CONTINUOUS
10
4.3431348425196852
20
-1.5034448425196849
11
4.3431348425196852
21
-1.5034448818897637
0
LINE
8
BLACK
6
CONTINUOUS
10
4.3431348425196852
20
-1.5034448818897637
11
3.6868848818897635
21
-1.5034448818897637
0
LINE
8
BLACK
6
CONTINUOUS
10
3.6868848818897635
20
-1.5034448818897637
11
3.6868848425196847
21
-1.5034448818897637
0
LINE
8
BLACK
6
CONTINUOUS
10
3.6868848425196847
20
-1.5034448818897637
11
3.6868749212598426
21
-1.5034429133858267
0
LINE
8
BLACK
6
CONTINUOUS
10
3.6868749212598426
20
-1.5034429133858267
11
3.6828698425196849
21
-1.5034429921259842
0
LINE
8
BLACK
6
CONTINUOUS
10
3.6828698425196849
20
-1.5034429921259842
11
3.6749618503937005
21
-1.5048375590551182
0
LINE
8
BLACK
6
CONTINUOUS
10
3.6749618503937005
20
-1.5048375590551182
11
3.6674161811023622
21
-1.5075841338582676
0
LINE
8
BLACK
6
CONTINUOUS
10
3.6674161811023622
20
-1.5075841338582676
11
3.6604620472440943
21
-1.5115992913385827
0
LINE
8
BLACK
6
CONTINUOUS
10
3.6604620472440943
20
-1.5115992913385827
11
3.6543108267716535
21
-1.5167610236220472
0
LINE
8
BLACK
6
CONTINUOUS
10
3.6543108267716535
20
-1.5167610236220472
11
3.6491493700787401
21
-1.5229124803149605
0
LINE
8
BLACK
6
CONTINUOUS
10
3.6491493700787401
20
-1.5229124803149605
11
3.6451344881889765
21
-1.5298667322834645
0
LINE
8
BLACK
6
CONTINUOUS
10
3.6451344881889765
20
-1.5298667322834645
11
3.6423882283464568
21
-1.537412559055118
0
LINE
8
BLACK
6
CONTINUOUS
10
3.6423882283464568
20
-1.537412559055118
11
3.6409939763779526
21
-1.5453205905511811
0
LINE
8
BLACK
6
CONTINUOUS
10
3.6409939763779526
20
-1.5453205905511811
11
3.6409940944881889
21
-1.549335590551181
0
LINE
8
BLACK
6
CONTINUOUS
10
3.6409940944881889
20
-1.549335590551181
11
3.6409940551181101
21
-1.5493356299212597
0
LINE
8
BLACK
6
CONTINUOUS
10
3.6409940551181101
20
-1.5493356299212597
11
3.6409940944881889
21
-1.5493356692913385
0
LINE
8
BLACK
6
CONTINUOUS
10
3.6409940944881889
20
-1.5493356692913385
11
3.6404047244094486
21
-1.5568224409448819
0
LINE
8
BLACK
6
CONTINUOUS
10
3.6404047244094486
20
-1.5568224409448819
11
3.6386514566929131
21
-1.564124842519685
0
LINE
8
BLACK
6
CONTINUOUS
10
3.6386514566929131
20
-1.564124842519685
11
3.635777440944882
21
-1.5710631102362205
0
LINE
8
BLACK
6
CONTINUOUS
10
3.635777440944882
20
-1.5710631102362205
11
3.6318535039370077
21
-1.577466338582677
0
LINE
8
BLACK
6
CONTINUOUS
10
3.6318535039370077
20
-1.577466338582677
11
3.6269761417322832
21
-1.5831769291338582
0
LINE
8
BLACK
6
CONTINUOUS
10
3.6269761417322832
20
-1.5831769291338582
11
3.6212655511811023
21
-1.5880542913385827
0
LINE
8
BLACK
6
CONTINUOUS
10
3.6212655511811023
20
-1.5880542913385827
11
3.6148623228346457
21
-1.5919782283464567
0
LINE
8
BLACK
6
CONTINUOUS
10
3.6148623228346457
20
-1.5919782283464567
11
3.6079240551181102
21
-1.5948522440944881
0
LINE
8
BLACK
6
CONTINUOUS
10
3.6079240551181102
20
-1.5948522440944881
11
3.6006216535433069
21
-1.5966055118110236
0
LINE
8
BLACK
6
CONTINUOUS
10
3.6006216535433069
20
-1.5966055118110236
11
3.5931348818897635
21
-1.5971948818897637
0
LINE
8
BLACK
6
CONTINUOUS
10
3.5931348818897635
20
-1.5971948818897637
11
3.5931348425196852
21
-1.5971948425196849
0
LINE
8
BLACK
6
CONTINUOUS
10
3.5931348425196852
20
-1.5971948425196849
11
3.5931348425196852
21
-1.5971948818897637
0
LINE
8
BLACK
6
CONTINUOUS
10
3.5931348425196852
20
-1.5971948818897637
11
1.905634842519685
21
-1.5971948818897637
0
LINE
8
BLACK
6
CONTINUOUS
10
1.905634842519685
20
-1.5971948818897637
11
1.9056348031496062
21
-1.5971948425196849
0
LINE
8
BLACK
6
CONTINUOUS
10
1.9056348031496062
20
-1.5971948425196849
11
1.9056348031496062
21
-1.5971948818897637
0
LINE
8
BLACK
6
CONTINUOUS
10
1.9056348031496062
20
-1.5971948818897637
11
1.9056348031496062
21
-1.5971968503937009
0
LINE
8
BLACK
6
CONTINUOUS
10
1.9056348031496062
20
-1.5971968503937009
11
1.9016199999999999
21
-1.5971967716535433
0
LINE
8
BLACK
6
CONTINUOUS
10
1.9016199999999999
20
-1.5971967716535433
11
1.893712283464567
21
-1.5985909448818898
0
LINE
8
BLACK
6
CONTINUOUS
10
1.893712283464567
20
-1.5985909448818898
11
1.886166811023622
21
-1.6013370866141732
0
LINE
8
BLACK
6
CONTINUOUS
10
1.886166811023622
20
-1.6013370866141732
11
1.8792128346456693
21
-1.6053517716535433
0
LINE
8
BLACK
6
CONTINUOUS
10
1.8792128346456693
20
-1.6053517716535433
11
1.8730616535433071
21
-1.610513031496063
0
LINE
8
BLACK
6
CONTINUOUS
10
1.8730616535433071
20
-1.610513031496063
11
1.8679001574803149
21
-1.6166640157480314
0
LINE
8
BLACK
6
CONTINUOUS
10
1.8679001574803149
20
-1.6166640157480314
11
1.863885157480315
21
-1.6236177952755906
0
LINE
8
BLACK
6
CONTINUOUS
10
1.863885157480315
20
-1.6236177952755906
11
1.8611387007874016
21
-1.631163188976378
0
LINE
8
BLACK
6
CONTINUOUS
10
1.8611387007874016
20
-1.631163188976378
11
1.8597442125984252
21
-1.6390708267716536
0
LINE
8
BLACK
6
CONTINUOUS
10
1.8597442125984252
20
-1.6390708267716536
11
1.8597440944881889
21
-1.643085590551181
0
LINE
8
BLACK
6
CONTINUOUS
10
1.8597440944881889
20
-1.643085590551181
11
1.8597440944881889
21
-1.6430856299212597
0
LINE
8
BLACK
6
CONTINUOUS
10
1.8597440944881889
20
-1.6430856299212597
11
1.8597440944881889
21
-3.8929052362204724
0
LINE
8
BLACK
6
CONTINUOUS
10
1.8597440944881889
20
-3.8929052362204724
11
2.3749699999999998
21
-5.2512280708661416
0
LINE
8
BLACK
6
CONTINUOUS
10
2.3749699999999998
20
-5.2512280708661416
11
3.2178235826771653
21
-4.9702768897637792
0
LINE
8
BLACK
6
CONTINUOUS
10
3.2178235826771653
20
-4.9702768897637792
11
3.2178957874015746
21
-4.9702677559055113
0
LINE
8
BLACK
6
CONTINUOUS
10
3.2178957874015746
20
-4.9702677559055113
11
3.2179637795275591
21
-4.9702413385826771
0
LINE
8
BLACK
6
CONTINUOUS
10
3.2179637795275591
20
-4.9702413385826771
11
4.0148387795275591
21
-4.8296163385826771
0
LINE
8
BLACK
6
CONTINUOUS
10
4.0148387795275591
20
-4.8296163385826771
11
4.0149251574803149
21
-4.8296181889763776
0
LINE
8
BLACK
6
CONTINUOUS
10
4.0149251574803149
20
-4.8296181889763776
11
4.0150098425196852
21
-4.8296013779527556
0
LINE
8
BLACK
6
CONTINUOUS
10
4.0150098425196852
20
-4.8296013779527556
11
4.8580735039370078
21
-4.8296013779527556
0
LINE
8
BLACK
6
CONTINUOUS
10
4.8580735039370078
20
-4.8296013779527556
11
5.1859612598425198
21
-3.9396203543307085
0
LINE
8
BLACK
6
CONTINUOUS
10
5.1859612598425198
20
-3.9396203543307085
11
5.1859755118110238
21
-3.9395970472440944
0
LINE
8
BLACK
6
CONTINUOUS
10
5.1859755118110238
20
-3.9395970472440944
11
5.1859755118110238
21
-3.9395839763779525
0
LINE
8
BLACK
6
CONTINUOUS
10
5.1859755118110238
20
-3.9395839763779525
11
5.1859961811023618
21
-3.9395632677165353
0
LINE
8
BLACK
6
CONTINUOUS
10
5.1859961811023618
20
-3.9395632677165353
11
5.1861618110236218
21
-3.939292834645669
0
LINE
8
BLACK
6
CONTINUOUS
10
5.1861618110236218
20
-3.939292834645669
11
5.1863564960629924
21
-3.9392029527559056
0
LINE
8
BLACK
6
CONTINUOUS
10
5.1863564960629924
20
-3.9392029527559056
11
5.1865081889763776
21
-3.9390512992125983
0
LINE
8
BLACK
6
CONTINUOUS
10
5.1865081889763776
20
-3.9390512992125983
11
5.1868191732283462
21
-3.9389894094488187
0
LINE
8
BLACK
6
CONTINUOUS
10
5.1868191732283462
20
-3.9389894094488187
11
5.186845787401575
21
-3.9389771653543306
0
LINE
8
BLACK
6
CONTINUOUS
10
5.186845787401575
20
-3.9389771653543306
11
5.1868580708661414
21
-3.9389816929133858
0
LINE
8
BLACK
6
CONTINUOUS
10
5.1868580708661414
20
-3.9389816929133858
11
5.1868848425196852
21
-3.938976377952756
0
LINE
8
BLACK
6
CONTINUOUS
10
5.1868848425196852
20
-3.938976377952756
11
6.5931348425196852
21
-3.938976377952756
0
LINE
8
BLACK
6
CONTINUOUS
10
6.5931348425196852
20
-3.938976377952756
11
6.5931447244094485
21
-3.938978307086614
0
LINE
8
BLACK
6
CONTINUOUS
10
6.5931447244094485
20
-3.938978307086614
11
6.5971498425196851
21
-3.9389782677165353
0
LINE
8
BLACK
6
CONTINUOUS
10
6.5971498425196851
20
-3.9389782677165353
11
6.6050578346456694
21
-3.9375837007874015
0
LINE
8
BLACK
6
CONTINUOUS
10
6.6050578346456694
20
-3.9375837007874015
11
6.6126035039370077
21
-3.9348371259842518
0
LINE
8
BLACK
6
CONTINUOUS
10
6.6126035039370077
20
-3.9348371259842518
11
6.6195576377952756
21
-3.9308219685039369
0
LINE
8
BLACK
6
CONTINUOUS
10
6.6195576377952756
20
-3.9308219685039369
11
6.6257088582677168
21
-3.9256602362204722
0
LINE
8
BLACK
6
CONTINUOUS
10
6.6257088582677168
20
-3.9256602362204722
11
6.6308703149606298
21
-3.9195087795275589
0
LINE
8
BLACK
6
CONTINUOUS
10
6.6308703149606298
20
-3.9195087795275589
11
6.6348851968503935
21
-3.9125545275590552
0
LINE
8
BLACK
6
CONTINUOUS
10
6.6348851968503935
20
-3.9125545275590552
11
6.6376314566929135
21
-3.9050087007874015
0
LINE
8
BLACK
6
CONTINUOUS
10
6.6376314566929135
20
-3.9050087007874015
11
6.6390257086614168
21
-3.8971006692913384
0
LINE
8
BLACK
6
CONTINUOUS
10
6.6390257086614168
20
-3.8971006692913384
11
6.6390255905511806
21
-3.8930856692913385
0
LINE
8
BLACK
6
CONTINUOUS
10
6.6390255905511806
20
-3.8930856692913385
11
6.6390255905511806
21
-3.8930856299212597
0
LINE
8
BLACK
6
CONTINUOUS
10
6.6390255905511806
20
-3.8930856299212597
11
6.6390255905511806
21
-1.7368356299212597
0
LINE
8
BLACK
6
CONTINUOUS
10
6.6390255905511806
20
-1.7368356299212597
11
6.6390255905511806
21
-1.736835590551181
0
LINE
8
BLACK
6
CONTINUOUS
10
6.6390255905511806
20
-1.736835590551181
11
6.6390236220472438
21
-1.736835590551181
0
LINE
8
BLACK
6
CONTINUOUS
10
6.6390236220472438
20
-1.736835590551181
11
6.6390237007874013
21
-1.7328207874015749
0
LINE
8
BLACK
6
CONTINUOUS
10
6.6390237007874013
20
-1.7328207874015749
11
6.6376295275590547
21
-1.7249130708661418
0
LINE
8
BLACK
6
CONTINUOUS
10
6.6376295275590547
20
-1.7249130708661418
11
6.6348833858267717
21
-1.7173675984251968
0
LINE
8
BLACK
6
CONTINUOUS
10
6.6348833858267717
20
-1.7173675984251968
11
6.630868700787401
21
-1.7104136220472441
0
LINE
8
BLACK
6
CONTINUOUS
10
6.630868700787401
20
-1.7104136220472441
11
6.6257074409448817
21
-1.7042624409448819
0
LINE
8
BLACK
6
CONTINUOUS
10
6.6257074409448817
20
-1.7042624409448819
11
6.619556456692913
21
-1.6991009448818897
0
LINE
8
BLACK
6
CONTINUOUS
10
6.619556456692913
20
-1.6991009448818897
11
6.6126026771653539
21
-1.6950859448818898
0
LINE
8
BLACK
6
CONTINUOUS
10
6.6126026771653539
20
-1.6950859448818898
11
6.6050572834645669
21
-1.6923394881889764
0
LINE
8
BLACK
6
CONTINUOUS
10
6.6050572834645669
20
-1.6923394881889764
11
6.5971496456692913
21
-1.6909449999999999
0
LINE
8
BLACK
6
CONTINUOUS
10
6.5971496456692913
20
-1.6909449999999999
11
6.5931348031496064
21
-1.6909448818897637
0
LINE
8
BLACK
6
CONTINUOUS
10
6.5931348031496064
20
-1.6909448818897637
11
5.9368848425196852
21
-1.6909448818897637
0
LINE
8
BLACK
6
CONTINUOUS
10
5.9368848425196852
20
-1.6909448818897637
11
5.9368848031496064
21
-1.6909448425196849
0
LINE
8
BLACK
6
CONTINUOUS
10
5.9368848031496064
20
-1.6909448425196849
11
5.9368848031496064
21
-1.6909448818897637
0
LINE
8
BLACK
6
CONTINUOUS
10
5.9368848031496064
20
-1.6909448818897637
11
5.9293981496062989
21
-1.6903555118110236
0
LINE
8
BLACK
6
CONTINUOUS
10
5.9293981496062989
20
-1.6903555118110236
11
5.9220958661417322
21
-1.6886022047244094
0
LINE
8
BLACK
6
CONTINUOUS
10
5.9220958661417322
20
-1.6886022047244094
11
5.9151577165354325
21
-1.685728188976378
0
LINE
8
BLACK
6
CONTINUOUS
10
5.9151577165354325
20
-1.685728188976378
11
5.9087546456692914
21
-1.6818041732283464
0
LINE
8
BLACK
6
CONTINUOUS
10
5.9087546456692914
20
-1.6818041732283464
11
5.9030442125984255
21
-1.676926811023622
0
LINE
8
BLACK
6
CONTINUOUS
10
5.9030442125984255
20
-1.676926811023622
11
5.8981670866141727
21
-1.6712161811023623
0
LINE
8
BLACK
6
CONTINUOUS
10
5.8981670866141727
20
-1.6712161811023623
11
5.894243346456693
21
-1.6648129133858267
0
LINE
8
BLACK
6
CONTINUOUS
10
5.894243346456693
20
-1.6648129133858267
11
5.8913696062992127
21
-1.65787468503937
0
LINE
8
BLACK
6
CONTINUOUS
10
5.8913696062992127
20
-1.65787468503937
11
5.889616614173228
21
-1.6505723228346456
0
LINE
8
BLACK
6
CONTINUOUS
10
5.889616614173228
20
-1.6505723228346456
11
5.8890288188976374
21
-1.6431020078740157
0
LINE
8
BLACK
6
CONTINUOUS
10
5.8890288188976374
20
-1.6431020078740157
11
5.8890255905511806
21
-1.6430856299212597
0
LINE
8
BLACK
6
CONTINUOUS
10
5.8890255905511806
20
-1.6430856299212597
11
5.8890255905511806
21
-1.5493356299212597
0
LINE
8
BLACK
6
CONTINUOUS
10
5.8890255905511806
20
-1.5493356299212597
11
5.8890255905511806
21
-1.549335590551181
0
LINE
8
BLACK
6
CONTINUOUS
10
5.8890255905511806
20
-1.549335590551181
11
5.8890236220472438
21
-1.549335590551181
0
LINE
8
BLACK
6
CONTINUOUS
10
5.8890236220472438
20
-1.549335590551181
11
5.8890237007874013
21
-1.5453207874015749
0
LINE
8
BLACK
6
CONTINUOUS
10
5.8890237007874013
20
-1.5453207874015749
11
5.8876295275590547
21
-1.5374130708661418
0
LINE
8
BLACK
6
CONTINUOUS
10
5.8876295275590547
20
-1.5374130708661418
11
5.8848833858267717
21
-1.5298675984251968
0
LINE
8
BLACK
6
CONTINUOUS
10
5.8848833858267717
20
-1.5298675984251968
11
5.8808687007874019
21
-1.5229136220472441
0
LINE
8
BLACK
6
CONTINUOUS
10
5.8808687007874019
20
-1.5229136220472441
11
5.8757074409448817
21
-1.5167624409448819
0
LINE
8
BLACK
6
CONTINUOUS
10
5.8757074409448817
20
-1.5167624409448819
11
5.869556456692913
21
-1.5116009448818897
0
LINE
8
BLACK
6
CONTINUOUS
10
5.869556456692913
20
-1.5116009448818897
11
5.8626026771653539
21
-1.5075859448818898
0
LINE
8
BLACK
6
CONTINUOUS
10
5.8626026771653539
20
-1.5075859448818898
11
5.8550572834645669
21
-1.5048394881889764
0
LINE
8
BLACK
6
CONTINUOUS
10
5.8550572834645669
20
-1.5048394881889764
11
5.8471496456692913
21
-1.5034449999999999
0
LINE
8
BLACK
6
CONTINUOUS
10
5.8471496456692913
20
-1.5034449999999999
11
5.8431348031496064
21
-1.5034448818897637
0
LINE
8
BLACK
6
CONTINUOUS
10
5.8431348031496064
20
-1.5034448818897637
11
5.1868848425196852
21
-1.5034448818897637
0
LINE
8
BLACK
6
CONTINUOUS
10
5.1868848425196852
20
-1.5034448818897637
11
5.1868848031496064
21
-1.5034448425196849
0
LINE
8
BLACK
6
CONTINUOUS
10
5.1868848031496064
20
-1.5034448425196849
11
5.1868848031496064
21
-1.5034448818897637
0
LINE
8
BLACK
6
CONTINUOUS
10
5.1868848031496064
20
-1.5034448818897637
11
5.1793981496062989
21
-1.5028555118110236
0
LINE
8
BLACK
6
CONTINUOUS
10
5.1793981496062989
20
-1.5028555118110236
11
5.1720958661417322
21
-1.5011022047244094
0
LINE
8
BLACK
6
CONTINUOUS
10
5.1720958661417322
20
-1.5011022047244094
11
5.1651577165354325
21
-1.498228188976378
0
LINE
8
BLACK
6
CONTINUOUS
10
5.1651577165354325
20
-1.498228188976378
11
5.1587546456692914
21
-1.4943041732283464
0
LINE
8
BLACK
6
CONTINUOUS
10
5.1587546456692914
20
-1.4943041732283464
11
5.1530442125984255
21
-1.489426811023622
0
LINE
8
BLACK
6
CONTINUOUS
10
5.1530442125984255
20
-1.489426811023622
11
5.1481670866141735
21
-1.4837161811023623
0
LINE
8
BLACK
6
CONTINUOUS
10
5.1481670866141735
20
-1.4837161811023623
11
5.144243346456693
21
-1.4773129133858267
0
LINE
8
BLACK
6
CONTINUOUS
10
5.144243346456693
20
-1.4773129133858267
11
5.1413696062992127
21
-1.47037468503937
0
LINE
8
BLACK
6
CONTINUOUS
10
5.1413696062992127
20
-1.47037468503937
11
5.139616614173228
21
-1.4630723228346456
0
LINE
8
BLACK
6
CONTINUOUS
10
5.139616614173228
20
-1.4630723228346456
11
5.1390281889763783
21
-1.4555936614173228
0
LINE
8
BLACK
6
CONTINUOUS
10
5.1390281889763783
20
-1.4555936614173228
11
5.1390255905511806
21
-1.4555856692913385
0
LINE
8
BLACK
6
CONTINUOUS
10
5.1390255905511806
20
-1.4555856692913385
11
5.1390255511811018
21
-1.4515707480314961
0
LINE
8
BLACK
6
CONTINUOUS
10
5.1390255511811018
20
-1.4515707480314961
11
5.1376310236220473
21
-1.4436629527559055
0
LINE
8
BLACK
6
CONTINUOUS
10
5.1376310236220473
20
-1.4436629527559055
11
5.1348846062992122
21
-1.4361174409448818
0
LINE
8
BLACK
6
CONTINUOUS
10
5.1348846062992122
20
-1.4361174409448818
11
5.130869645669291
21
-1.4291634645669291
0
LINE
8
BLACK
6
CONTINUOUS
10
5.130869645669291
20
-1.4291634645669291
11
5.125708188976378
21
-1.4230122834645669
0
LINE
8
BLACK
6
CONTINUOUS
10
5.125708188976378
20
-1.4230122834645669
11
5.1195570078740156
21
-1.4178508267716534
0
LINE
8
BLACK
6
CONTINUOUS
10
5.1195570078740156
20
-1.4178508267716534
11
5.1126030314960627
21
-1.4138358661417323
0
LINE
8
BLACK
6
CONTINUOUS
10
5.1126030314960627
20
-1.4138358661417323
11
5.1050575196850394
21
-1.4110894488188976
0
LINE
8
BLACK
6
CONTINUOUS
10
5.1050575196850394
20
-1.4110894488188976
11
5.0971497244094488
21
-1.4096949212598424
0
LINE
8
BLACK
6
CONTINUOUS
10
5.0971497244094488
20
-1.4096949212598424
11
5.0931348031496064
21
-1.4096948818897637
0
LINE
8
BLACK
6
CONTINUOUS
10
5.0931348031496064
20
-1.4096948818897637
11
4.4368848818897639
21
-1.4096948818897637
  0
ENDSEC
  0
EOF
