  0
SECTION
  2
HEADER
  9
$ANGBASE
  50
0.0
  9
$ANGDIR
  70
1
  9
$MEASUREMENT
  70
0
  0
ENDSEC
  0
SECTION
  2
TABLES
  0
TABLE
  2
LTYPE
  70
4
  0
LTYPE
  5
40F
  2
CONTINUOUS
  70
0
  3
Solid line
  72
65
  73
0
  40
0.0
  0
LTYPE
  5
410
  2
DASHDOT
 70
0
  3
Dash Dot ____ _ ____ _
 72
65
 73
4
 40
2.0
 49
1.25
 49
-0.25
 49
0.25
 49
-0.25
  0
LTYPE
  5
411
  2
DASHED
 70
0
  3
Dashed __ __ __ __ __
 72
65
 73
2
 40
0.75
 49
0.5
 49
-0.25
  0
LTYPE
  5
43B
  2
DOTTED
 70
0
  3
Dotted .  .  .  .
 72
65
 73
2
 40
0.2
 49
0.0
 49
-0.2
  0
ENDTAB
  0
TABLE
  2
STYLE
  70
4
  0
STYLE
  2
KICAD
  70
0
  40
0
  41
1
  42
1
  50
0
  71
0
  3
isocp.shx
  0
STYLE
  2
KICADB
  70
0
  40
0
  41
1
  42
1
  50
0
  71
0
  3
isocp.shx
  0
STYLE
  2
KICADI
  70
0
  40
0
  41
1
  42
1
  50
15
  71
0
  3
isocp.shx
  0
STYLE
  2
KICADBI
  70
0
  40
0
  41
1
  42
1
  50
15
  71
0
  3
isocp.shx
  0
ENDTAB
  0
TABLE
  2
LAYER
  70
1
  0
LAYER
  2
BLACK
  70
0
  62
7
  6
CONTINUOUS
  0
ENDTAB
  0
ENDSEC
  0
SECTION
  2
ENTITIES
0
LINE
8
BLACK
6
CONTINUOUS
10
7.5376476771653538
20
-3.3453740157480314
11
7.5376477165354325
21
-3.3453740157480314
0
LINE
8
BLACK
6
CONTINUOUS
10
7.5376477165354325
20
-3.3453740157480314
11
7.5422470472440946
21
-3.3458925984251966
0
LINE
8
BLACK
6
CONTINUOUS
10
7.5422470472440946
20
-3.3458925984251966
11
7.5466157086614167
21
-3.3474214566929135
0
LINE
8
BLACK
6
CONTINUOUS
10
7.5466157086614167
20
-3.3474214566929135
11
7.5505347637795275
21
-3.3498838976377954
0
LINE
8
BLACK
6
CONTINUOUS
10
7.5505347637795275
20
-3.3498838976377954
11
7.5538077165354327
21
-3.3531565354330706
0
LINE
8
BLACK
6
CONTINUOUS
10
7.5538077165354327
20
-3.3531565354330706
11
7.5562705905511809
21
-3.3570753543307088
0
LINE
8
BLACK
6
CONTINUOUS
10
7.5562705905511809
20
-3.3570753543307088
11
7.5577998425196853
21
-3.3614438582677164
0
LINE
8
BLACK
6
CONTINUOUS
10
7.5577998425196853
20
-3.3614438582677164
11
7.5583188976377951
21
-3.3660431102362205
0
LINE
8
BLACK
6
CONTINUOUS
10
7.5583188976377951
20
-3.3660431102362205
11
7.5583169291338583
21
-3.3660431102362205
0
LINE
8
BLACK
6
CONTINUOUS
10
7.5583169291338583
20
-3.3660431102362205
11
7.5583168897637796
21
-3.3660431496062992
0
LINE
8
BLACK
6
CONTINUOUS
10
7.5583168897637796
20
-3.3660431496062992
11
7.5583169291338583
21
-3.3660433070866143
0
LINE
8
BLACK
6
CONTINUOUS
10
7.5583169291338583
20
-3.3660433070866143
11
7.5583169291338583
21
-4.6062007874015745
0
LINE
8
BLACK
6
CONTINUOUS
10
7.5583169291338583
20
-4.6062007874015745
11
7.5577987007874015
21
-4.6108000000000002
0
LINE
8
BLACK
6
CONTINUOUS
10
7.5577987007874015
20
-4.6108000000000002
11
7.5562699606299208
21
-4.6151685433070861
0
LINE
8
BLACK
6
CONTINUOUS
10
7.5562699606299208
20
-4.6151685433070861
11
7.5538074015748027
21
-4.6190873622047244
0
LINE
8
BLACK
6
CONTINUOUS
10
7.5538074015748027
20
-4.6190873622047244
11
7.5505345669291337
21
-4.6223598818897633
0
LINE
8
BLACK
6
CONTINUOUS
10
7.5505345669291337
20
-4.6223598818897633
11
7.5466154724409451
21
-4.624822047244094
0
LINE
8
BLACK
6
CONTINUOUS
10
7.5466154724409451
20
-4.624822047244094
11
7.5422467716535433
21
-4.6263503149606295
0
LINE
8
BLACK
6
CONTINUOUS
10
7.5422467716535433
20
-4.6263503149606295
11
7.5376705118110232
21
-4.6268655118110233
0
LINE
8
BLACK
6
CONTINUOUS
10
7.5376705118110232
20
-4.6268655118110233
11
7.537647637795275
21
-4.6268700787401578
0
LINE
8
BLACK
6
CONTINUOUS
10
7.537647637795275
20
-4.6268700787401578
11
7.5376475590551175
21
-4.6268700787401578
0
LINE
8
BLACK
6
CONTINUOUS
10
7.5376475590551175
20
-4.6268700787401578
11
6.7896161417322833
21
-4.6268700787401578
0
LINE
8
BLACK
6
CONTINUOUS
10
6.7896161417322833
20
-4.6268700787401578
11
6.7896160629921258
21
-4.626870039370079
0
LINE
8
BLACK
6
CONTINUOUS
10
6.7896160629921258
20
-4.626870039370079
11
6.7896160629921258
21
-4.6268700787401578
0
LINE
8
BLACK
6
CONTINUOUS
10
6.7896160629921258
20
-4.6268700787401578
11
6.7850167322834647
21
-4.6263514960629921
0
LINE
8
BLACK
6
CONTINUOUS
10
6.7850167322834647
20
-4.6263514960629921
11
6.7806480708661416
21
-4.6248226377952752
0
LINE
8
BLACK
6
CONTINUOUS
10
6.7806480708661416
20
-4.6248226377952752
11
6.7767290157480318
21
-4.6223601968503933
0
LINE
8
BLACK
6
CONTINUOUS
10
6.7767290157480318
20
-4.6223601968503933
11
6.7734560629921257
21
-4.6190875590551181
0
LINE
8
BLACK
6
CONTINUOUS
10
6.7734560629921257
20
-4.6190875590551181
11
6.7709931889763775
21
-4.6151687401574799
0
LINE
8
BLACK
6
CONTINUOUS
10
6.7709931889763775
20
-4.6151687401574799
11
6.769463937007874
21
-4.6108002362204727
0
LINE
8
BLACK
6
CONTINUOUS
10
6.769463937007874
20
-4.6108002362204727
11
6.7689448818897633
21
-4.6062009842519682
0
LINE
8
BLACK
6
CONTINUOUS
10
6.7689448818897633
20
-4.6062009842519682
11
6.7689468503937009
21
-4.6062009842519682
0
LINE
8
BLACK
6
CONTINUOUS
10
6.7689468503937009
20
-4.6062009842519682
11
6.7689468503937009
21
-4.6062009055118107
0
LINE
8
BLACK
6
CONTINUOUS
10
6.7689468503937009
20
-4.6062009055118107
11
6.7689468503937009
21
-4.6062007874015745
0
LINE
8
BLACK
6
CONTINUOUS
10
6.7689468503937009
20
-4.6062007874015745
11
6.7689468503937009
21
-3.3660433070866143
0
LINE
8
BLACK
6
CONTINUOUS
10
6.7689468503937009
20
-3.3660433070866143
11
6.7689468897637797
21
-3.3660431102362205
0
LINE
8
BLACK
6
CONTINUOUS
10
6.7689468897637797
20
-3.3660431102362205
11
6.7694650787401569
21
-3.3614440944881889
0
LINE
8
BLACK
6
CONTINUOUS
10
6.7694650787401569
20
-3.3614440944881889
11
6.7709938188976375
21
-3.3570755511811021
0
LINE
8
BLACK
6
CONTINUOUS
10
6.7709938188976375
20
-3.3570755511811021
11
6.7734563779527557
21
-3.3531567322834643
0
LINE
8
BLACK
6
CONTINUOUS
10
6.7734563779527557
20
-3.3531567322834643
11
6.7767292125984246
21
-3.3498842125984249
0
LINE
8
BLACK
6
CONTINUOUS
10
6.7767292125984246
20
-3.3498842125984249
11
6.7806483070866141
21
-3.3474220472440943
0
LINE
8
BLACK
6
CONTINUOUS
10
6.7806483070866141
20
-3.3474220472440943
11
6.785017007874016
21
-3.3458937795275592
0
LINE
8
BLACK
6
CONTINUOUS
10
6.785017007874016
20
-3.3458937795275592
11
6.7895932283464564
21
-3.3453785433070866
0
LINE
8
BLACK
6
CONTINUOUS
10
6.7895932283464564
20
-3.3453785433070866
11
6.7896161417322833
21
-3.3453740157480314
0
LINE
8
BLACK
6
CONTINUOUS
10
6.7896161417322833
20
-3.3453740157480314
11
7.537647637795275
21
-3.3453740157480314
0
LINE
8
BLACK
6
CONTINUOUS
10
7.537647637795275
20
-3.3453740157480314
11
7.5376476771653538
21
-3.3453740157480314
0
LINE
8
BLACK
6
CONTINUOUS
10
6.7896160629921258
20
-3.3473425196850393
11
6.7896160236220471
21
-3.3473444881889765
0
LINE
8
BLACK
6
CONTINUOUS
10
6.7896160236220471
20
-3.3473444881889765
11
6.7871541338582677
21
-3.3473442913385827
0
LINE
8
BLACK
6
CONTINUOUS
10
6.7871541338582677
20
-3.3473442913385827
11
6.7823979921259845
21
-3.3486182677165353
0
LINE
8
BLACK
6
CONTINUOUS
10
6.7823979921259845
20
-3.3486182677165353
11
6.7781337007874018
21
-3.3510798818897638
0
LINE
8
BLACK
6
CONTINUOUS
10
6.7781337007874018
20
-3.3510798818897638
11
6.7746518897637795
21
-3.3545613385826769
0
LINE
8
BLACK
6
CONTINUOUS
10
6.7746518897637795
20
-3.3545613385826769
11
6.7721898425196851
21
-3.3588253937007875
0
LINE
8
BLACK
6
CONTINUOUS
10
6.7721898425196851
20
-3.3588253937007875
11
6.7709153937007871
21
-3.3635814173228344
0
LINE
8
BLACK
6
CONTINUOUS
10
6.7709153937007871
20
-3.3635814173228344
11
6.7709153543307083
21
-3.3660433070866143
0
LINE
8
BLACK
6
CONTINUOUS
10
6.7709153543307083
20
-3.3660433070866143
11
6.7709153543307083
21
-4.6062007874015745
0
LINE
8
BLACK
6
CONTINUOUS
10
6.7709153543307083
20
-4.6062007874015745
11
6.7709133858267716
21
-4.6062106692913387
0
LINE
8
BLACK
6
CONTINUOUS
10
6.7709133858267716
20
-4.6062106692913387
11
6.7709138188976379
21
-4.6086626377952751
0
LINE
8
BLACK
6
CONTINUOUS
10
6.7709138188976379
20
-4.6086626377952751
11
6.7721889763779526
21
-4.6134187795275592
0
LINE
8
BLACK
6
CONTINUOUS
10
6.7721889763779526
20
-4.6134187795275592
11
6.7746514566929132
21
-4.6176829527559056
0
LINE
8
BLACK
6
CONTINUOUS
10
6.7746514566929132
20
-4.6176829527559056
11
6.7781335039370081
21
-4.6211646456692916
0
LINE
8
BLACK
6
CONTINUOUS
10
6.7781335039370081
20
-4.6211646456692916
11
6.782397913385827
21
-4.623626692913386
0
LINE
8
BLACK
6
CONTINUOUS
10
6.782397913385827
20
-4.623626692913386
11
6.7871541732283465
21
-4.6249014173228344
0
LINE
8
BLACK
6
CONTINUOUS
10
6.7871541732283465
20
-4.6249014173228344
11
6.7896162204724408
21
-4.6249015748031495
0
LINE
8
BLACK
6
CONTINUOUS
10
6.7896162204724408
20
-4.6249015748031495
11
7.537647637795275
21
-4.6249015748031495
0
LINE
8
BLACK
6
CONTINUOUS
10
7.537647637795275
20
-4.6249015748031495
11
7.5376476771653538
21
-4.6249015748031495
0
LINE
8
BLACK
6
CONTINUOUS
10
7.5376476771653538
20
-4.6249015748031495
11
7.5376477559055113
21
-4.6249015748031495
0
LINE
8
BLACK
6
CONTINUOUS
10
7.5376477559055113
20
-4.6249015748031495
11
7.5376477559055113
21
-4.6248996062992127
0
LINE
8
BLACK
6
CONTINUOUS
10
7.5376477559055113
20
-4.6248996062992127
11
7.5401096456692915
21
-4.6248998031496065
0
LINE
8
BLACK
6
CONTINUOUS
10
7.5401096456692915
20
-4.6248998031496065
11
7.5448657874015748
21
-4.6236258267716535
0
LINE
8
BLACK
6
CONTINUOUS
10
7.5448657874015748
20
-4.6236258267716535
11
7.5491300787401574
21
-4.6211642125984254
0
LINE
8
BLACK
6
CONTINUOUS
10
7.5491300787401574
20
-4.6211642125984254
11
7.5526118897637797
21
-4.6176827559055118
0
LINE
8
BLACK
6
CONTINUOUS
10
7.5526118897637797
20
-4.6176827559055118
11
7.5550739370078741
21
-4.6134187007874017
0
LINE
8
BLACK
6
CONTINUOUS
10
7.5550739370078741
20
-4.6134187007874017
11
7.5563483858267713
21
-4.6086626771653538
0
LINE
8
BLACK
6
CONTINUOUS
10
7.5563483858267713
20
-4.6086626771653538
11
7.55634842519685
21
-4.6062007874015745
0
LINE
8
BLACK
6
CONTINUOUS
10
7.55634842519685
20
-4.6062007874015745
11
7.55634842519685
21
-3.3660433070866143
0
LINE
8
BLACK
6
CONTINUOUS
10
7.55634842519685
20
-3.3660433070866143
11
7.5563503543307089
21
-3.3660333858267717
0
LINE
8
BLACK
6
CONTINUOUS
10
7.5563503543307089
20
-3.3660333858267717
11
7.5563499606299214
21
-3.3635814566929132
0
LINE
8
BLACK
6
CONTINUOUS
10
7.5563499606299214
20
-3.3635814566929132
11
7.5550748031496058
21
-3.35882531496063
0
LINE
8
BLACK
6
CONTINUOUS
10
7.5550748031496058
20
-3.35882531496063
11
7.5526123228346451
21
-3.3545611417322836
0
LINE
8
BLACK
6
CONTINUOUS
10
7.5526123228346451
20
-3.3545611417322836
11
7.5491302755905512
21
-3.3510794488188975
0
LINE
8
BLACK
6
CONTINUOUS
10
7.5491302755905512
20
-3.3510794488188975
11
7.5448658661417323
21
-3.3486174015748031
0
LINE
8
BLACK
6
CONTINUOUS
10
7.5448658661417323
20
-3.3486174015748031
11
7.5401096062992128
21
-3.3473426771653543
0
LINE
8
BLACK
6
CONTINUOUS
10
7.5401096062992128
20
-3.3473426771653543
11
7.5376475590551175
21
-3.3473425196850393
0
LINE
8
BLACK
6
CONTINUOUS
10
7.5376475590551175
20
-3.3473425196850393
11
6.7896161417322833
21
-3.3473425196850393
0
LINE
8
BLACK
6
CONTINUOUS
10
6.7896161417322833
20
-3.3473425196850393
11
6.7896160629921258
21
-3.3473424803149605
0
LINE
8
BLACK
6
CONTINUOUS
10
6.7896160629921258
20
-3.3473424803149605
11
6.7896160629921258
21
-3.3473425196850393
0
LINE
8
BLACK
6
CONTINUOUS
10
5.0951033464566926
20
-1.9327263779527559
11
5.0951033858267714
21
-1.9327263779527559
0
LINE
8
BLACK
6
CONTINUOUS
10
5.0951033858267714
20
-1.9327263779527559
11
5.1025901574803152
21
-1.933315748031496
0
LINE
8
BLACK
6
CONTINUOUS
10
5.1025901574803152
20
-1.933315748031496
11
5.1098925590551181
21
-1.9350690157480315
0
LINE
8
BLACK
6
CONTINUOUS
10
5.1098925590551181
20
-1.9350690157480315
11
5.1168308267716531
21
-1.9379430314960628
0
LINE
8
BLACK
6
CONTINUOUS
10
5.1168308267716531
20
-1.9379430314960628
11
5.1232340551181101
21
-1.9418669685039369
0
LINE
8
BLACK
6
CONTINUOUS
10
5.1232340551181101
20
-1.9418669685039369
11
5.1289446456692911
21
-1.9467443307086614
0
LINE
8
BLACK
6
CONTINUOUS
10
5.1289446456692911
20
-1.9467443307086614
11
5.1338220078740155
21
-1.9524549212598425
0
LINE
8
BLACK
6
CONTINUOUS
10
5.1338220078740155
20
-1.9524549212598425
11
5.1377459448818898
21
-1.9588581496062991
0
LINE
8
BLACK
6
CONTINUOUS
10
5.1377459448818898
20
-1.9588581496062991
11
5.1406199606299214
21
-1.9657964173228346
0
LINE
8
BLACK
6
CONTINUOUS
10
5.1406199606299214
20
-1.9657964173228346
11
5.1423732283464565
21
-1.9730988188976377
0
LINE
8
BLACK
6
CONTINUOUS
10
5.1423732283464565
20
-1.9730988188976377
11
5.1429625984251963
21
-1.9805855905511811
0
LINE
8
BLACK
6
CONTINUOUS
10
5.1429625984251963
20
-1.9805855905511811
11
5.1429606299212596
21
-1.9805916141732283
0
LINE
8
BLACK
6
CONTINUOUS
10
5.1429606299212596
20
-1.9805916141732283
11
5.1429608661417321
21
-1.9846005511811022
0
LINE
8
BLACK
6
CONTINUOUS
10
5.1429608661417321
20
-1.9846005511811022
11
5.1443556692913388
21
-1.9925083858267716
0
LINE
8
BLACK
6
CONTINUOUS
10
5.1443556692913388
20
-1.9925083858267716
11
5.147102401574803
21
-2.0000539370078738
0
LINE
8
BLACK
6
CONTINUOUS
10
5.147102401574803
20
-2.0000539370078738
11
5.1511175984251967
21
-2.0070079133858267
0
LINE
8
BLACK
6
CONTINUOUS
10
5.1511175984251967
20
-2.0070079133858267
11
5.1562792913385822
21
-2.01315905511811
0
LINE
8
BLACK
6
CONTINUOUS
10
5.1562792913385822
20
-2.01315905511811
11
5.1624306692913384
21
-2.0183205118110235
0
LINE
8
BLACK
6
CONTINUOUS
10
5.1624306692913384
20
-2.0183205118110235
11
5.1693848031496064
21
-2.0223354330708663
0
LINE
8
BLACK
6
CONTINUOUS
10
5.1693848031496064
20
-2.0223354330708663
11
5.1769304724409446
21
-2.0250818503937009
0
LINE
8
BLACK
6
CONTINUOUS
10
5.1769304724409446
20
-2.0250818503937009
11
5.1848383858267715
21
-2.0264763385826772
0
LINE
8
BLACK
6
CONTINUOUS
10
5.1848383858267715
20
-2.0264763385826772
11
5.1888533858267714
21
-2.0264763779527559
0
LINE
8
BLACK
6
CONTINUOUS
10
5.1888533858267714
20
-2.0264763779527559
11
5.8451033464566926
21
-2.0264763779527559
0
LINE
8
BLACK
6
CONTINUOUS
10
5.8451033464566926
20
-2.0264763779527559
11
5.8451033858267714
21
-2.0264763779527559
0
LINE
8
BLACK
6
CONTINUOUS
10
5.8451033858267714
20
-2.0264763779527559
11
5.8525902755905514
21
-2.0270657480314962
0
LINE
8
BLACK
6
CONTINUOUS
10
5.8525902755905514
20
-2.0270657480314962
11
5.8598927952755906
21
-2.0288189763779525
0
LINE
8
BLACK
6
CONTINUOUS
10
5.8598927952755906
20
-2.0288189763779525
11
5.8668311811023619
21
-2.0316929527559053
0
LINE
8
BLACK
6
CONTINUOUS
10
5.8668311811023619
20
-2.0316929527559053
11
5.8732345669291339
21
-2.0356168897637796
0
LINE
8
BLACK
6
CONTINUOUS
10
5.8732345669291339
20
-2.0356168897637796
11
5.8789453543307086
21
-2.0404941732283466
0
LINE
8
BLACK
6
CONTINUOUS
10
5.8789453543307086
20
-2.0404941732283466
11
5.8838228740157481
21
-2.0462047637795275
0
LINE
8
BLACK
6
CONTINUOUS
10
5.8838228740157481
20
-2.0462047637795275
11
5.8877470866141728
21
-2.0526079921259841
0
LINE
8
BLACK
6
CONTINUOUS
10
5.8877470866141728
20
-2.0526079921259841
11
5.8906213385826769
21
-2.0595462598425196
0
LINE
8
BLACK
6
CONTINUOUS
10
5.8906213385826769
20
-2.0595462598425196
11
5.8923748818897632
21
-2.0668487007874017
0
LINE
8
BLACK
6
CONTINUOUS
10
5.8923748818897632
20
-2.0668487007874017
11
5.892964566929134
21
-2.0743355511811021
0
LINE
8
BLACK
6
CONTINUOUS
10
5.892964566929134
20
-2.0743355511811021
11
5.8929625984251963
21
-2.0743355511811021
0
LINE
8
BLACK
6
CONTINUOUS
10
5.8929625984251963
20
-2.0743355511811021
11
5.8929625984251963
21
-2.0743355905511809
0
LINE
8
BLACK
6
CONTINUOUS
10
5.8929625984251963
20
-2.0743355905511809
11
5.8929626377952751
21
-2.0783505118110237
0
LINE
8
BLACK
6
CONTINUOUS
10
5.8929626377952751
20
-2.0783505118110237
11
5.8943571653543305
21
-2.0862583070866143
0
LINE
8
BLACK
6
CONTINUOUS
10
5.8943571653543305
20
-2.0862583070866143
11
5.8971035826771656
21
-2.0938038188976376
0
LINE
8
BLACK
6
CONTINUOUS
10
5.8971035826771656
20
-2.0938038188976376
11
5.9011185433070867
21
-2.1007577952755905
0
LINE
8
BLACK
6
CONTINUOUS
10
5.9011185433070867
20
-2.1007577952755905
11
5.9062799999999998
21
-2.1069089763779525
0
LINE
8
BLACK
6
CONTINUOUS
10
5.9062799999999998
20
-2.1069089763779525
11
5.9124311811023622
21
-2.1120704330708659
0
LINE
8
BLACK
6
CONTINUOUS
10
5.9124311811023622
20
-2.1120704330708659
11
5.9193851574803151
21
-2.1160853937007875
0
LINE
8
BLACK
6
CONTINUOUS
10
5.9193851574803151
20
-2.1160853937007875
11
5.9269306692913384
21
-2.1188318110236222
0
LINE
8
BLACK
6
CONTINUOUS
10
5.9269306692913384
20
-2.1188318110236222
11
5.934838464566929
21
-2.1202263385826772
0
LINE
8
BLACK
6
CONTINUOUS
10
5.934838464566929
20
-2.1202263385826772
11
5.9388533858267714
21
-2.1202263779527559
0
LINE
8
BLACK
6
CONTINUOUS
10
5.9388533858267714
20
-2.1202263779527559
11
7.6263533464566926
21
-2.1202263779527559
0
LINE
8
BLACK
6
CONTINUOUS
10
7.6263533464566926
20
-2.1202263779527559
11
7.6338401181102364
21
-2.1208154724409449
0
LINE
8
BLACK
6
CONTINUOUS
10
7.6338401181102364
20
-2.1208154724409449
11
7.6411425590551181
21
-2.1225685826771654
0
LINE
8
BLACK
6
CONTINUOUS
10
7.6411425590551181
20
-2.1225685826771654
11
7.6480808267716531
21
-2.1254424803149607
0
LINE
8
BLACK
6
CONTINUOUS
10
7.6480808267716531
20
-2.1254424803149607
11
7.6544840551181101
21
-2.1293664566929134
0
LINE
8
BLACK
6
CONTINUOUS
10
7.6544840551181101
20
-2.1293664566929134
11
7.6601945669291336
21
-2.1342438582677166
0
LINE
8
BLACK
6
CONTINUOUS
10
7.6601945669291336
20
-2.1342438582677166
11
7.6650717322834643
21
-2.1399546062992125
0
LINE
8
BLACK
6
CONTINUOUS
10
7.6650717322834643
20
-2.1399546062992125
11
7.6689954330708661
21
-2.1463579921259841
0
LINE
8
BLACK
6
CONTINUOUS
10
7.6689954330708661
20
-2.1463579921259841
11
7.6718690551181101
21
-2.1532963779527559
0
LINE
8
BLACK
6
CONTINUOUS
10
7.6718690551181101
20
-2.1532963779527559
11
7.673621850393701
21
-2.1605988976377954
0
LINE
8
BLACK
6
CONTINUOUS
10
7.673621850393701
20
-2.1605988976377954
11
7.6742093307086616
21
-2.1680691732283464
0
LINE
8
BLACK
6
CONTINUOUS
10
7.6742093307086616
20
-2.1680691732283464
11
7.6742125984251963
21
-2.1680856299212596
0
LINE
8
BLACK
6
CONTINUOUS
10
7.6742125984251963
20
-2.1680856299212596
11
7.6742125984251963
21
-4.4180856299212596
0
LINE
8
BLACK
6
CONTINUOUS
10
7.6742125984251963
20
-4.4180856299212596
11
7.6741779921259843
21
-4.4182594488188975
0
LINE
8
BLACK
6
CONTINUOUS
10
7.6741779921259843
20
-4.4182594488188975
11
7.6741486220472437
21
-4.4184346850393696
0
LINE
8
BLACK
6
CONTINUOUS
10
7.6741486220472437
20
-4.4184346850393696
11
7.1585236220472437
21
-5.7778096850393696
0
LINE
8
BLACK
6
CONTINUOUS
10
7.1585236220472437
20
-5.7778096850393696
11
7.1583562992125982
21
-5.7780772047244096
0
LINE
8
BLACK
6
CONTINUOUS
10
7.1583562992125982
20
-5.7780772047244096
11
7.158346889763779
21
-5.7781055118110238
0
LINE
8
BLACK
6
CONTINUOUS
10
7.158346889763779
20
-5.7781055118110238
11
7.1583348818897639
21
-5.7781114960629916
0
LINE
8
BLACK
6
CONTINUOUS
10
7.1583348818897639
20
-5.7781114960629916
11
7.1583199999999998
21
-5.7781353149606298
0
LINE
8
BLACK
6
CONTINUOUS
10
7.1583199999999998
20
-5.7781353149606298
11
7.1579928346456692
21
-5.7782825196850389
0
LINE
8
BLACK
6
CONTINUOUS
10
7.1579928346456692
20
-5.7782825196850389
11
7.1576731102362201
21
-5.7784424015748028
0
LINE
8
BLACK
6
CONTINUOUS
10
7.1576731102362201
20
-5.7784424015748028
11
7.1576453543307084
21
-5.7784388976377947
0
LINE
8
BLACK
6
CONTINUOUS
10
7.1576453543307084
20
-5.7784388976377947
11
7.1576330314960632
21
-5.7784444488188971
0
LINE
8
BLACK
6
CONTINUOUS
10
7.1576330314960632
20
-5.7784444488188971
11
7.1576049606299215
21
-5.7784337795275587
0
LINE
8
BLACK
6
CONTINUOUS
10
7.1576049606299215
20
-5.7784337795275587
11
7.1572920866141727
21
-5.7783943700787397
0
LINE
8
BLACK
6
CONTINUOUS
10
7.1572920866141727
20
-5.7783943700787397
11
6.3136109842519685
21
-5.4971673228346454
0
LINE
8
BLACK
6
CONTINUOUS
10
6.3136109842519685
20
-5.4971673228346454
11
5.5168920472440943
21
-5.3565698818897634
0
LINE
8
BLACK
6
CONTINUOUS
10
5.5168920472440943
20
-5.3565698818897634
11
4.6732283464566926
21
-5.3565698818897634
0
LINE
8
BLACK
6
CONTINUOUS
10
4.6732283464566926
20
-5.3565698818897634
11
4.6732015748031497
21
-5.3565645275590548
0
LINE
8
BLACK
6
CONTINUOUS
10
4.6732015748031497
20
-5.3565645275590548
11
4.6731892913385824
21
-5.3565690944881892
0
LINE
8
BLACK
6
CONTINUOUS
10
4.6731892913385824
20
-5.3565690944881892
11
4.6731626771653545
21
-5.3565568110236219
0
LINE
8
BLACK
6
CONTINUOUS
10
4.6731626771653545
20
-5.3565568110236219
11
4.6728516929133859
21
-5.356494960629921
0
LINE
8
BLACK
6
CONTINUOUS
10
4.6728516929133859
20
-5.356494960629921
11
4.6726999999999999
21
-5.356343267716535
0
LINE
8
BLACK
6
CONTINUOUS
10
4.6726999999999999
20
-5.356343267716535
11
4.6725053149606302
21
-5.3562534251968499
0
LINE
8
BLACK
6
CONTINUOUS
10
4.6725053149606302
20
-5.3562534251968499
11
4.6723396850393701
21
-5.3559829527559053
0
LINE
8
BLACK
6
CONTINUOUS
10
4.6723396850393701
20
-5.3559829527559053
11
4.6723190157480312
21
-5.3559622834645664
0
LINE
8
BLACK
6
CONTINUOUS
10
4.6723190157480312
20
-5.3559622834645664
11
4.6723190157480312
21
-5.3559491732283462
0
LINE
8
BLACK
6
CONTINUOUS
10
4.6723190157480312
20
-5.3559491732283462
11
4.6723047637795272
21
-5.3559259055118105
0
LINE
8
BLACK
6
CONTINUOUS
10
4.6723047637795272
20
-5.3559259055118105
11
4.3444170078740161
21
-4.4659448818897634
0
LINE
8
BLACK
6
CONTINUOUS
10
4.3444170078740161
20
-4.4659448818897634
11
2.938853346456693
21
-4.4659448818897634
0
LINE
8
BLACK
6
CONTINUOUS
10
2.938853346456693
20
-4.4659448818897634
11
2.9388533070866143
21
-4.4659448425196846
0
LINE
8
BLACK
6
CONTINUOUS
10
2.9388533070866143
20
-4.4659448425196846
11
2.9388533070866143
21
-4.4659448818897634
0
LINE
8
BLACK
6
CONTINUOUS
10
2.9388533070866143
20
-4.4659448818897634
11
2.9313664173228346
21
-4.4653555118110235
0
LINE
8
BLACK
6
CONTINUOUS
10
2.9313664173228346
20
-4.4653555118110235
11
2.9240638976377951
21
-4.4636022834645672
0
LINE
8
BLACK
6
CONTINUOUS
10
2.9240638976377951
20
-4.4636022834645672
11
2.9171255118110238
21
-4.4607283070866144
0
LINE
8
BLACK
6
CONTINUOUS
10
2.9171255118110238
20
-4.4607283070866144
11
2.9107221259842517
21
-4.4568043700787401
0
LINE
8
BLACK
6
CONTINUOUS
10
2.9107221259842517
20
-4.4568043700787401
11
2.905011338582677
21
-4.4519270866141731
0
LINE
8
BLACK
6
CONTINUOUS
10
2.905011338582677
20
-4.4519270866141731
11
2.9001338188976375
21
-4.4462164960629922
0
LINE
8
BLACK
6
CONTINUOUS
10
2.9001338188976375
20
-4.4462164960629922
11
2.8962096062992124
21
-4.4398132677165352
0
LINE
8
BLACK
6
CONTINUOUS
10
2.8962096062992124
20
-4.4398132677165352
11
2.8933353543307088
21
-4.4328750000000001
0
LINE
8
BLACK
6
CONTINUOUS
10
2.8933353543307088
20
-4.4328750000000001
11
2.891581811023622
21
-4.4255725590551176
0
LINE
8
BLACK
6
CONTINUOUS
10
2.891581811023622
20
-4.4255725590551176
11
2.8909921259842517
21
-4.4180857086614171
0
LINE
8
BLACK
6
CONTINUOUS
10
2.8909921259842517
20
-4.4180857086614171
11
2.8909940944881889
21
-4.4180857086614171
0
LINE
8
BLACK
6
CONTINUOUS
10
2.8909940944881889
20
-4.4180857086614171
11
2.8909940944881889
21
-4.4180856299212596
0
LINE
8
BLACK
6
CONTINUOUS
10
2.8909940944881889
20
-4.4180856299212596
11
2.8909940944881889
21
-2.2618356299212596
0
LINE
8
BLACK
6
CONTINUOUS
10
2.8909940944881889
20
-2.2618356299212596
11
2.8909940944881889
21
-2.2618355905511809
0
LINE
8
BLACK
6
CONTINUOUS
10
2.8909940944881889
20
-2.2618355905511809
11
2.8915831889763779
21
-2.2543488582677167
0
LINE
8
BLACK
6
CONTINUOUS
10
2.8915831889763779
20
-2.2543488582677167
11
2.8933362992125984
21
-2.2470464173228346
0
LINE
8
BLACK
6
CONTINUOUS
10
2.8933362992125984
20
-2.2470464173228346
11
2.8962101968503937
21
-2.2401081496062991
0
LINE
8
BLACK
6
CONTINUOUS
10
2.8962101968503937
20
-2.2401081496062991
11
2.9001341732283463
21
-2.2337049212598425
0
LINE
8
BLACK
6
CONTINUOUS
10
2.9001341732283463
20
-2.2337049212598425
11
2.9050115748031495
21
-2.2279944094488187
0
LINE
8
BLACK
6
CONTINUOUS
10
2.9050115748031495
20
-2.2279944094488187
11
2.9107223228346455
21
-2.223117244094488
0
LINE
8
BLACK
6
CONTINUOUS
10
2.9107223228346455
20
-2.223117244094488
11
2.9171257086614171
21
-2.2191935433070866
0
LINE
8
BLACK
6
CONTINUOUS
10
2.9171257086614171
20
-2.2191935433070866
11
2.9240640944881888
21
-2.2163199212598426
0
LINE
8
BLACK
6
CONTINUOUS
10
2.9240640944881888
20
-2.2163199212598426
11
2.9313666141732284
21
-2.2145671259842521
0
LINE
8
BLACK
6
CONTINUOUS
10
2.9313666141732284
20
-2.2145671259842521
11
2.9388368897637793
21
-2.2139796062992128
0
LINE
8
BLACK
6
CONTINUOUS
10
2.9388368897637793
20
-2.2139796062992128
11
2.938853346456693
21
-2.2139763779527559
0
LINE
8
BLACK
6
CONTINUOUS
10
2.938853346456693
20
-2.2139763779527559
11
3.595103346456693
21
-2.2139763779527559
0
LINE
8
BLACK
6
CONTINUOUS
10
3.595103346456693
20
-2.2139763779527559
11
3.5951033858267714
21
-2.2139763779527559
0
LINE
8
BLACK
6
CONTINUOUS
10
3.5951033858267714
20
-2.2139763779527559
11
3.5951034251968501
21
-2.2139763779527559
0
LINE
8
BLACK
6
CONTINUOUS
10
3.5951034251968501
20
-2.2139763779527559
11
3.5951034251968501
21
-2.2139744094488187
0
LINE
8
BLACK
6
CONTINUOUS
10
3.5951034251968501
20
-2.2139744094488187
11
3.5991182677165354
21
-2.2139746456692913
0
LINE
8
BLACK
6
CONTINUOUS
10
3.5991182677165354
20
-2.2139746456692913
11
3.6070261023622048
21
-2.2125807086614171
0
LINE
8
BLACK
6
CONTINUOUS
10
3.6070261023622048
20
-2.2125807086614171
11
3.6145717322834643
21
-2.2098347244094487
0
LINE
8
BLACK
6
CONTINUOUS
10
3.6145717322834643
20
-2.2098347244094487
11
3.6215258661417322
21
-2.2058200787401576
0
LINE
8
BLACK
6
CONTINUOUS
10
3.6215258661417322
20
-2.2058200787401576
11
3.6276771259842517
21
-2.2006588188976379
0
LINE
8
BLACK
6
CONTINUOUS
10
3.6276771259842517
20
-2.2006588188976379
11
3.6328386614173227
21
-2.1945077559055117
0
LINE
8
BLACK
6
CONTINUOUS
10
3.6328386614173227
20
-2.1945077559055117
11
3.6368535826771651
21
-2.1875538188976376
0
LINE
8
BLACK
6
CONTINUOUS
10
3.6368535826771651
20
-2.1875538188976376
11
3.6395998818897639
21
-2.1800083070866143
0
LINE
8
BLACK
6
CONTINUOUS
10
3.6395998818897639
20
-2.1800083070866143
11
3.6409941338582676
21
-2.1721005118110237
0
LINE
8
BLACK
6
CONTINUOUS
10
3.6409941338582676
20
-2.1721005118110237
11
3.6409940944881889
21
-2.1680856692913384
0
LINE
8
BLACK
6
CONTINUOUS
10
3.6409940944881889
20
-2.1680856692913384
11
3.6409940944881889
21
-2.1680856299212596
0
LINE
8
BLACK
6
CONTINUOUS
10
3.6409940944881889
20
-2.1680856299212596
11
3.6409940944881889
21
-2.0743356299212596
0
LINE
8
BLACK
6
CONTINUOUS
10
3.6409940944881889
20
-2.0743356299212596
11
3.6409940944881889
21
-2.0743355511811021
0
LINE
8
BLACK
6
CONTINUOUS
10
3.6409940944881889
20
-2.0743355511811021
11
3.6415831889763779
21
-2.0668488582677167
0
LINE
8
BLACK
6
CONTINUOUS
10
3.6415831889763779
20
-2.0668488582677167
11
3.6433362992125984
21
-2.0595464173228346
0
LINE
8
BLACK
6
CONTINUOUS
10
3.6433362992125984
20
-2.0595464173228346
11
3.6462101968503937
21
-2.0526081496062991
0
LINE
8
BLACK
6
CONTINUOUS
10
3.6462101968503937
20
-2.0526081496062991
11
3.6501341732283463
21
-2.0462049212598425
0
LINE
8
BLACK
6
CONTINUOUS
10
3.6501341732283463
20
-2.0462049212598425
11
3.6550115748031495
21
-2.0404944094488187
0
LINE
8
BLACK
6
CONTINUOUS
10
3.6550115748031495
20
-2.0404944094488187
11
3.6607223228346455
21
-2.035617244094488
0
LINE
8
BLACK
6
CONTINUOUS
10
3.6607223228346455
20
-2.035617244094488
11
3.6671257086614171
21
-2.0316935433070866
0
LINE
8
BLACK
6
CONTINUOUS
10
3.6671257086614171
20
-2.0316935433070866
11
3.6740640944881888
21
-2.0288199212598426
0
LINE
8
BLACK
6
CONTINUOUS
10
3.6740640944881888
20
-2.0288199212598426
11
3.6813666141732284
21
-2.0270671259842521
0
LINE
8
BLACK
6
CONTINUOUS
10
3.6813666141732284
20
-2.0270671259842521
11
3.6888368897637793
21
-2.0264796062992128
0
LINE
8
BLACK
6
CONTINUOUS
10
3.6888368897637793
20
-2.0264796062992128
11
3.688853346456693
21
-2.0264763779527559
0
LINE
8
BLACK
6
CONTINUOUS
10
3.688853346456693
20
-2.0264763779527559
11
4.3451033464566926
21
-2.0264763779527559
0
LINE
8
BLACK
6
CONTINUOUS
10
4.3451033464566926
20
-2.0264763779527559
11
4.3451033858267714
21
-2.0264763779527559
0
LINE
8
BLACK
6
CONTINUOUS
10
4.3451033858267714
20
-2.0264763779527559
11
4.3451034251968501
21
-2.0264763779527559
0
LINE
8
BLACK
6
CONTINUOUS
10
4.3451034251968501
20
-2.0264763779527559
11
4.3451034251968501
21
-2.0264744094488187
0
LINE
8
BLACK
6
CONTINUOUS
10
4.3451034251968501
20
-2.0264744094488187
11
4.349118267716535
21
-2.0264746456692913
0
LINE
8
BLACK
6
CONTINUOUS
10
4.349118267716535
20
-2.0264746456692913
11
4.3570261023622043
21
-2.0250807086614171
0
LINE
8
BLACK
6
CONTINUOUS
10
4.3570261023622043
20
-2.0250807086614171
11
4.3645717322834647
21
-2.0223347244094487
0
LINE
8
BLACK
6
CONTINUOUS
10
4.3645717322834647
20
-2.0223347244094487
11
4.3715258661417318
21
-2.0183200787401576
0
LINE
8
BLACK
6
CONTINUOUS
10
4.3715258661417318
20
-2.0183200787401576
11
4.3776771259842517
21
-2.0131588188976379
0
LINE
8
BLACK
6
CONTINUOUS
10
4.3776771259842517
20
-2.0131588188976379
11
4.3828386614173231
21
-2.0070077559055117
0
LINE
8
BLACK
6
CONTINUOUS
10
4.3828386614173231
20
-2.0070077559055117
11
4.3868535826771655
21
-2.0000538188976376
0
LINE
8
BLACK
6
CONTINUOUS
10
4.3868535826771655
20
-2.0000538188976376
11
4.3895998818897635
21
-1.9925083070866141
0
LINE
8
BLACK
6
CONTINUOUS
10
4.3895998818897635
20
-1.9925083070866141
11
4.3909941338582676
21
-1.9846005118110235
0
LINE
8
BLACK
6
CONTINUOUS
10
4.3909941338582676
20
-1.9846005118110235
11
4.3909940944881889
21
-1.9805856692913386
0
LINE
8
BLACK
6
CONTINUOUS
10
4.3909940944881889
20
-1.9805856692913386
11
4.3909940944881889
21
-1.9805856299212599
0
LINE
8
BLACK
6
CONTINUOUS
10
4.3909940944881889
20
-1.9805856299212599
11
4.3909940944881889
21
-1.9805855905511811
0
LINE
8
BLACK
6
CONTINUOUS
10
4.3909940944881889
20
-1.9805855905511811
11
4.3915834645669287
21
-1.9730988188976377
0
LINE
8
BLACK
6
CONTINUOUS
10
4.3915834645669287
20
-1.9730988188976377
11
4.3933367322834647
21
-1.9657964173228346
0
LINE
8
BLACK
6
CONTINUOUS
10
4.3933367322834647
20
-1.9657964173228346
11
4.3962107480314963
21
-1.9588581496062991
0
LINE
8
BLACK
6
CONTINUOUS
10
4.3962107480314963
20
-1.9588581496062991
11
4.4001346850393697
21
-1.9524549212598425
0
LINE
8
BLACK
6
CONTINUOUS
10
4.4001346850393697
20
-1.9524549212598425
11
4.4050120472440941
21
-1.9467443307086614
0
LINE
8
BLACK
6
CONTINUOUS
10
4.4050120472440941
20
-1.9467443307086614
11
4.4107226377952751
21
-1.9418669685039369
0
LINE
8
BLACK
6
CONTINUOUS
10
4.4107226377952751
20
-1.9418669685039369
11
4.4171258661417321
21
-1.9379430314960628
0
LINE
8
BLACK
6
CONTINUOUS
10
4.4171258661417321
20
-1.9379430314960628
11
4.424064133858268
21
-1.9350690157480315
0
LINE
8
BLACK
6
CONTINUOUS
10
4.424064133858268
20
-1.9350690157480315
11
4.4313665354330709
21
-1.933315748031496
0
LINE
8
BLACK
6
CONTINUOUS
10
4.4313665354330709
20
-1.933315748031496
11
4.4388533070866139
21
-1.9327263779527559
0
LINE
8
BLACK
6
CONTINUOUS
10
4.4388533070866139
20
-1.9327263779527559
11
4.4388533464566926
21
-1.9327263779527559
0
LINE
8
BLACK
6
CONTINUOUS
10
4.4388533464566926
20
-1.9327263779527559
11
5.0951033464566926
21
-1.9327263779527559
0
LINE
8
BLACK
6
CONTINUOUS
10
4.4388533858267714
20
-1.9346948818897638
11
4.434838464566929
21
-1.9346949212598425
0
LINE
8
BLACK
6
CONTINUOUS
10
4.434838464566929
20
-1.9346949212598425
11
4.4269306692913384
21
-1.9360894488188976
0
LINE
8
BLACK
6
CONTINUOUS
10
4.4269306692913384
20
-1.9360894488188976
11
4.4193851574803151
21
-1.9388358661417322
0
LINE
8
BLACK
6
CONTINUOUS
10
4.4193851574803151
20
-1.9388358661417322
11
4.4124311811023622
21
-1.9428508267716535
0
LINE
8
BLACK
6
CONTINUOUS
10
4.4124311811023622
20
-1.9428508267716535
11
4.4062799999999998
21
-1.9480122834645668
0
LINE
8
BLACK
6
CONTINUOUS
10
4.4062799999999998
20
-1.9480122834645668
11
4.4011185433070867
21
-1.954163464566929
0
LINE
8
BLACK
6
CONTINUOUS
10
4.4011185433070867
20
-1.954163464566929
11
4.3971035826771656
21
-1.9611174409448819
0
LINE
8
BLACK
6
CONTINUOUS
10
4.3971035826771656
20
-1.9611174409448819
11
4.3943571653543305
21
-1.9686629527559054
0
LINE
8
BLACK
6
CONTINUOUS
10
4.3943571653543305
20
-1.9686629527559054
11
4.3929626377952751
21
-1.976570748031496
0
LINE
8
BLACK
6
CONTINUOUS
10
4.3929626377952751
20
-1.976570748031496
11
4.3929625984251963
21
-1.9805855511811024
0
LINE
8
BLACK
6
CONTINUOUS
10
4.3929625984251963
20
-1.9805855511811024
11
4.3929625984251963
21
-1.9805855905511811
0
LINE
8
BLACK
6
CONTINUOUS
10
4.3929625984251963
20
-1.9805855905511811
11
4.3923735039370078
21
-1.988072401574803
0
LINE
8
BLACK
6
CONTINUOUS
10
4.3923735039370078
20
-1.988072401574803
11
4.3906203937007877
21
-1.9953748425196849
0
LINE
8
BLACK
6
CONTINUOUS
10
4.3906203937007877
20
-1.9953748425196849
11
4.3877464960629924
21
-2.0023131102362206
0
LINE
8
BLACK
6
CONTINUOUS
10
4.3877464960629924
20
-2.0023131102362206
11
4.3838225196850393
21
-2.0087163385826772
0
LINE
8
BLACK
6
CONTINUOUS
10
4.3838225196850393
20
-2.0087163385826772
11
4.3789451181102361
21
-2.0144268503937006
0
LINE
8
BLACK
6
CONTINUOUS
10
4.3789451181102361
20
-2.0144268503937006
11
4.3732343700787402
21
-2.0193040157480313
0
LINE
8
BLACK
6
CONTINUOUS
10
4.3732343700787402
20
-2.0193040157480313
11
4.3668309842519681
21
-2.0232277165354331
0
LINE
8
BLACK
6
CONTINUOUS
10
4.3668309842519681
20
-2.0232277165354331
11
4.3598925984251968
21
-2.0261013385826772
0
LINE
8
BLACK
6
CONTINUOUS
10
4.3598925984251968
20
-2.0261013385826772
11
4.3525900787401577
21
-2.0278541338582676
0
LINE
8
BLACK
6
CONTINUOUS
10
4.3525900787401577
20
-2.0278541338582676
11
4.3451197637795271
21
-2.0284416141732282
0
LINE
8
BLACK
6
CONTINUOUS
10
4.3451197637795271
20
-2.0284416141732282
11
4.3451033464566926
21
-2.0284448818897638
0
LINE
8
BLACK
6
CONTINUOUS
10
4.3451033464566926
20
-2.0284448818897638
11
4.3451032677165351
21
-2.0284448818897638
0
LINE
8
BLACK
6
CONTINUOUS
10
4.3451032677165351
20
-2.0284448818897638
11
3.688853346456693
21
-2.0284448818897638
0
LINE
8
BLACK
6
CONTINUOUS
10
3.688853346456693
20
-2.0284448818897638
11
3.6888532677165355
21
-2.028444842519685
0
LINE
8
BLACK
6
CONTINUOUS
10
3.6888532677165355
20
-2.028444842519685
11
3.6888532677165355
21
-2.0284448818897638
0
LINE
8
BLACK
6
CONTINUOUS
10
3.6888532677165355
20
-2.0284448818897638
11
3.6888532677165355
21
-2.0284468503937005
0
LINE
8
BLACK
6
CONTINUOUS
10
3.6888532677165355
20
-2.0284468503937005
11
3.6848384251968502
21
-2.0284466141732285
0
LINE
8
BLACK
6
CONTINUOUS
10
3.6848384251968502
20
-2.0284466141732285
11
3.6769305905511809
21
-2.0298405511811022
0
LINE
8
BLACK
6
CONTINUOUS
10
3.6769305905511809
20
-2.0298405511811022
11
3.6693849606299214
21
-2.032586535433071
0
LINE
8
BLACK
6
CONTINUOUS
10
3.6693849606299214
20
-2.032586535433071
11
3.6624308267716534
21
-2.0366011811023621
0
LINE
8
BLACK
6
CONTINUOUS
10
3.6624308267716534
20
-2.0366011811023621
11
3.6562795669291339
21
-2.0417624409448818
0
LINE
8
BLACK
6
CONTINUOUS
10
3.6562795669291339
20
-2.0417624409448818
11
3.651118031496063
21
-2.047913503937008
0
LINE
8
BLACK
6
CONTINUOUS
10
3.651118031496063
20
-2.047913503937008
11
3.6471031102362206
21
-2.0548674409448817
0
LINE
8
BLACK
6
CONTINUOUS
10
3.6471031102362206
20
-2.0548674409448817
11
3.6443568110236217
21
-2.0624129527559054
0
LINE
8
BLACK
6
CONTINUOUS
10
3.6443568110236217
20
-2.0624129527559054
11
3.642962559055118
21
-2.070320748031496
0
LINE
8
BLACK
6
CONTINUOUS
10
3.642962559055118
20
-2.070320748031496
11
3.6429625984251968
21
-2.0743355511811021
0
LINE
8
BLACK
6
CONTINUOUS
10
3.6429625984251968
20
-2.0743355511811021
11
3.6429625984251968
21
-2.0743356299212596
0
LINE
8
BLACK
6
CONTINUOUS
10
3.6429625984251968
20
-2.0743356299212596
11
3.6429625984251968
21
-2.1680855511811021
0
LINE
8
BLACK
6
CONTINUOUS
10
3.6429625984251968
20
-2.1680855511811021
11
3.6429625984251968
21
-2.1680855905511809
0
LINE
8
BLACK
6
CONTINUOUS
10
3.6429625984251968
20
-2.1680855905511809
11
3.6423735039370078
21
-2.175572401574803
0
LINE
8
BLACK
6
CONTINUOUS
10
3.6423735039370078
20
-2.175572401574803
11
3.6406203937007873
21
-2.1828748425196851
0
LINE
8
BLACK
6
CONTINUOUS
10
3.6406203937007873
20
-2.1828748425196851
11
3.6377464960629919
21
-2.1898131102362206
0
LINE
8
BLACK
6
CONTINUOUS
10
3.6377464960629919
20
-2.1898131102362206
11
3.6338225196850393
21
-2.1962163385826772
0
LINE
8
BLACK
6
CONTINUOUS
10
3.6338225196850393
20
-2.1962163385826772
11
3.6289451181102361
21
-2.2019268503937006
0
LINE
8
BLACK
6
CONTINUOUS
10
3.6289451181102361
20
-2.2019268503937006
11
3.6232343700787402
21
-2.2068040157480313
0
LINE
8
BLACK
6
CONTINUOUS
10
3.6232343700787402
20
-2.2068040157480313
11
3.6168309842519686
21
-2.2107277165354331
0
LINE
8
BLACK
6
CONTINUOUS
10
3.6168309842519686
20
-2.2107277165354331
11
3.6098925984251968
21
-2.2136013385826772
0
LINE
8
BLACK
6
CONTINUOUS
10
3.6098925984251968
20
-2.2136013385826772
11
3.6025900787401572
21
-2.2153541338582676
0
LINE
8
BLACK
6
CONTINUOUS
10
3.6025900787401572
20
-2.2153541338582676
11
3.5951197637795276
21
-2.2159416141732282
0
LINE
8
BLACK
6
CONTINUOUS
10
3.5951197637795276
20
-2.2159416141732282
11
3.595103346456693
21
-2.2159448818897638
0
LINE
8
BLACK
6
CONTINUOUS
10
3.595103346456693
20
-2.2159448818897638
11
3.5951032677165355
21
-2.2159448818897638
0
LINE
8
BLACK
6
CONTINUOUS
10
3.5951032677165355
20
-2.2159448818897638
11
2.938853346456693
21
-2.2159448818897638
0
LINE
8
BLACK
6
CONTINUOUS
10
2.938853346456693
20
-2.2159448818897638
11
2.9388532677165355
21
-2.215944842519685
0
LINE
8
BLACK
6
CONTINUOUS
10
2.9388532677165355
20
-2.215944842519685
11
2.9388532677165355
21
-2.2159448818897638
0
LINE
8
BLACK
6
CONTINUOUS
10
2.9388532677165355
20
-2.2159448818897638
11
2.9388532677165355
21
-2.2159468503937005
0
LINE
8
BLACK
6
CONTINUOUS
10
2.9388532677165355
20
-2.2159468503937005
11
2.9348384251968502
21
-2.2159466141732285
0
LINE
8
BLACK
6
CONTINUOUS
10
2.9348384251968502
20
-2.2159466141732285
11
2.9269305905511809
21
-2.2173405511811022
0
LINE
8
BLACK
6
CONTINUOUS
10
2.9269305905511809
20
-2.2173405511811022
11
2.9193849606299214
21
-2.220086535433071
0
LINE
8
BLACK
6
CONTINUOUS
10
2.9193849606299214
20
-2.220086535433071
11
2.9124308267716534
21
-2.2241011811023621
0
LINE
8
BLACK
6
CONTINUOUS
10
2.9124308267716534
20
-2.2241011811023621
11
2.9062795669291339
21
-2.2292624409448818
0
LINE
8
BLACK
6
CONTINUOUS
10
2.9062795669291339
20
-2.2292624409448818
11
2.901118031496063
21
-2.235413503937008
0
LINE
8
BLACK
6
CONTINUOUS
10
2.901118031496063
20
-2.235413503937008
11
2.8971031102362206
21
-2.2423674409448817
0
LINE
8
BLACK
6
CONTINUOUS
10
2.8971031102362206
20
-2.2423674409448817
11
2.8943568110236222
21
-2.2499129527559054
0
LINE
8
BLACK
6
CONTINUOUS
10
2.8943568110236222
20
-2.2499129527559054
11
2.892962559055118
21
-2.257820748031496
0
LINE
8
BLACK
6
CONTINUOUS
10
2.892962559055118
20
-2.257820748031496
11
2.8929625984251968
21
-2.2618355905511809
0
LINE
8
BLACK
6
CONTINUOUS
10
2.8929625984251968
20
-2.2618355905511809
11
2.8929625984251968
21
-2.2618356299212596
0
LINE
8
BLACK
6
CONTINUOUS
10
2.8929625984251968
20
-2.2618356299212596
11
2.8929625984251968
21
-4.4180856299212596
0
LINE
8
BLACK
6
CONTINUOUS
10
2.8929625984251968
20
-4.4180856299212596
11
2.8929606299212596
21
-4.4180955118110239
0
LINE
8
BLACK
6
CONTINUOUS
10
2.8929606299212596
20
-4.4180955118110239
11
2.8929608661417321
21
-4.422100551181102
0
LINE
8
BLACK
6
CONTINUOUS
10
2.8929608661417321
20
-4.422100551181102
11
2.8943556692913384
21
-4.4300083858267714
0
LINE
8
BLACK
6
CONTINUOUS
10
2.8943556692913384
20
-4.4300083858267714
11
2.897102401574803
21
-4.4375539370078743
0
LINE
8
BLACK
6
CONTINUOUS
10
2.897102401574803
20
-4.4375539370078743
11
2.9011175984251967
21
-4.4445079133858263
0
LINE
8
BLACK
6
CONTINUOUS
10
2.9011175984251967
20
-4.4445079133858263
11
2.9062792913385826
21
-4.45065905511811
0
LINE
8
BLACK
6
CONTINUOUS
10
2.9062792913385826
20
-4.45065905511811
11
2.9124306692913384
21
-4.4558205118110239
0
LINE
8
BLACK
6
CONTINUOUS
10
2.9124306692913384
20
-4.4558205118110239
11
2.9193848031496064
21
-4.4598354330708663
0
LINE
8
BLACK
6
CONTINUOUS
10
2.9193848031496064
20
-4.4598354330708663
11
2.9269304724409446
21
-4.4625818503937005
0
LINE
8
BLACK
6
CONTINUOUS
10
2.9269304724409446
20
-4.4625818503937005
11
2.9348383858267715
21
-4.4639763385826772
0
LINE
8
BLACK
6
CONTINUOUS
10
2.9348383858267715
20
-4.4639763385826772
11
2.9388533858267718
21
-4.4639763779527559
0
LINE
8
BLACK
6
CONTINUOUS
10
2.9388533858267718
20
-4.4639763779527559
11
4.3451033464566926
21
-4.4639763779527559
0
LINE
8
BLACK
6
CONTINUOUS
10
4.3451033464566926
20
-4.4639763779527559
11
4.3451300787401577
21
-4.4639816929133858
0
LINE
8
BLACK
6
CONTINUOUS
10
4.3451300787401577
20
-4.4639816929133858
11
4.3451424015748028
21
-4.463977165354331
0
LINE
8
BLACK
6
CONTINUOUS
10
4.3451424015748028
20
-4.463977165354331
11
4.3451689763779529
21
-4.4639894094488186
0
LINE
8
BLACK
6
CONTINUOUS
10
4.3451689763779529
20
-4.4639894094488186
11
4.3454800000000002
21
-4.4640512992125982
0
LINE
8
BLACK
6
CONTINUOUS
10
4.3454800000000002
20
-4.4640512992125982
11
4.3456316141732279
21
-4.4642029133858268
0
LINE
8
BLACK
6
CONTINUOUS
10
4.3456316141732279
20
-4.4642029133858268
11
4.3458264173228347
21
-4.4642928346456694
0
LINE
8
BLACK
6
CONTINUOUS
10
4.3458264173228347
20
-4.4642928346456694
11
4.3459919685039372
21
-4.4645632677165352
0
LINE
8
BLACK
6
CONTINUOUS
10
4.3459919685039372
20
-4.4645632677165352
11
4.346012677165354
21
-4.4645839763779529
0
LINE
8
BLACK
6
CONTINUOUS
10
4.346012677165354
20
-4.4645839763779529
11
4.346012677165354
21
-4.4645970472440943
0
LINE
8
BLACK
6
CONTINUOUS
10
4.346012677165354
20
-4.4645970472440943
11
4.346026929133858
21
-4.4646203543307088
0
LINE
8
BLACK
6
CONTINUOUS
10
4.346026929133858
20
-4.4646203543307088
11
4.6739146456692913
21
-5.3546013779527559
0
LINE
8
BLACK
6
CONTINUOUS
10
4.6739146456692913
20
-5.3546013779527559
11
5.5169783464566926
21
-5.3546013779527559
0
LINE
8
BLACK
6
CONTINUOUS
10
5.5169783464566926
20
-5.3546013779527559
11
5.5170629921259842
21
-5.354618188976378
0
LINE
8
BLACK
6
CONTINUOUS
10
5.5170629921259842
20
-5.354618188976378
11
5.5171494094488187
21
-5.3546163385826766
0
LINE
8
BLACK
6
CONTINUOUS
10
5.5171494094488187
20
-5.3546163385826766
11
6.31402437007874
21
-5.4952413385826766
0
LINE
8
BLACK
6
CONTINUOUS
10
6.31402437007874
20
-5.4952413385826766
11
6.3140923228346457
21
-5.4952677559055116
0
LINE
8
BLACK
6
CONTINUOUS
10
6.3140923228346457
20
-5.4952677559055116
11
6.3141646062992125
21
-5.4952768897637796
0
LINE
8
BLACK
6
CONTINUOUS
10
6.3141646062992125
20
-5.4952768897637796
11
7.1570181496062988
21
-5.776228070866142
0
LINE
8
BLACK
6
CONTINUOUS
10
7.1570181496062988
20
-5.776228070866142
11
7.6722440944881889
21
-4.417905196850394
0
LINE
8
BLACK
6
CONTINUOUS
10
7.6722440944881889
20
-4.417905196850394
11
7.6722440944881889
21
-2.1680856299212596
0
LINE
8
BLACK
6
CONTINUOUS
10
7.6722440944881889
20
-2.1680856299212596
11
7.6722440944881889
21
-2.1680855511811021
0
LINE
8
BLACK
6
CONTINUOUS
10
7.6722440944881889
20
-2.1680855511811021
11
7.6722421259842521
21
-2.1680855511811021
0
LINE
8
BLACK
6
CONTINUOUS
10
7.6722421259842521
20
-2.1680855511811021
11
7.6722423622047247
21
-2.1640707086614173
0
LINE
8
BLACK
6
CONTINUOUS
10
7.6722423622047247
20
-2.1640707086614173
11
7.6708484251968505
21
-2.1561628740157479
0
LINE
8
BLACK
6
CONTINUOUS
10
7.6708484251968505
20
-2.1561628740157479
11
7.6681024409448817
21
-2.148617244094488
0
LINE
8
BLACK
6
CONTINUOUS
10
7.6681024409448817
20
-2.148617244094488
11
7.6640877952755906
21
-2.1416631102362205
0
LINE
8
BLACK
6
CONTINUOUS
10
7.6640877952755906
20
-2.1416631102362205
11
7.6589265354330704
21
-2.1355118503937009
0
LINE
8
BLACK
6
CONTINUOUS
10
7.6589265354330704
20
-2.1355118503937009
11
7.6527754724409451
21
-2.13035031496063
0
LINE
8
BLACK
6
CONTINUOUS
10
7.6527754724409451
20
-2.13035031496063
11
7.645821535433071
21
-2.1263353937007872
0
LINE
8
BLACK
6
CONTINUOUS
10
7.645821535433071
20
-2.1263353937007872
11
7.6382760236220468
21
-2.1235890944881888
0
LINE
8
BLACK
6
CONTINUOUS
10
7.6382760236220468
20
-2.1235890944881888
11
7.6303682283464562
21
-2.122194842519685
0
LINE
8
BLACK
6
CONTINUOUS
10
7.6303682283464562
20
-2.122194842519685
11
7.6263533858267714
21
-2.1221948818897638
0
LINE
8
BLACK
6
CONTINUOUS
10
7.6263533858267714
20
-2.1221948818897638
11
7.6263533464566926
21
-2.122194842519685
0
LINE
8
BLACK
6
CONTINUOUS
10
7.6263533464566926
20
-2.122194842519685
11
7.6263533464566926
21
-2.1221948818897638
0
LINE
8
BLACK
6
CONTINUOUS
10
7.6263533464566926
20
-2.1221948818897638
11
5.9388533464566926
21
-2.1221948818897638
0
LINE
8
BLACK
6
CONTINUOUS
10
5.9388533464566926
20
-2.1221948818897638
11
5.9388533070866139
21
-2.122194842519685
0
LINE
8
BLACK
6
CONTINUOUS
10
5.9388533070866139
20
-2.122194842519685
11
5.9388533070866139
21
-2.1221948818897638
0
LINE
8
BLACK
6
CONTINUOUS
10
5.9388533070866139
20
-2.1221948818897638
11
5.9313665354330709
21
-2.1216055118110235
0
LINE
8
BLACK
6
CONTINUOUS
10
5.9313665354330709
20
-2.1216055118110235
11
5.924064133858268
21
-2.119852244094488
0
LINE
8
BLACK
6
CONTINUOUS
10
5.924064133858268
20
-2.119852244094488
11
5.9171258661417321
21
-2.1169782283464564
0
LINE
8
BLACK
6
CONTINUOUS
10
5.9171258661417321
20
-2.1169782283464564
11
5.9107226377952751
21
-2.1130542913385826
0
LINE
8
BLACK
6
CONTINUOUS
10
5.9107226377952751
20
-2.1130542913385826
11
5.9050120472440941
21
-2.1081769291338581
0
LINE
8
BLACK
6
CONTINUOUS
10
5.9050120472440941
20
-2.1081769291338581
11
5.9001346850393697
21
-2.1024663385826772
0
LINE
8
BLACK
6
CONTINUOUS
10
5.9001346850393697
20
-2.1024663385826772
11
5.8962107480314963
21
-2.0960631102362206
0
LINE
8
BLACK
6
CONTINUOUS
10
5.8962107480314963
20
-2.0960631102362206
11
5.8933367322834647
21
-2.0891248425196851
0
LINE
8
BLACK
6
CONTINUOUS
10
5.8933367322834647
20
-2.0891248425196851
11
5.8915834645669287
21
-2.0818224409448818
0
LINE
8
BLACK
6
CONTINUOUS
10
5.8915834645669287
20
-2.0818224409448818
11
5.8909940944881889
21
-2.0743356692913384
0
LINE
8
BLACK
6
CONTINUOUS
10
5.8909940944881889
20
-2.0743356692913384
11
5.8909960236220469
21
-2.0743296062992127
0
LINE
8
BLACK
6
CONTINUOUS
10
5.8909960236220469
20
-2.0743296062992127
11
5.8909958267716531
21
-2.0703207086614173
0
LINE
8
BLACK
6
CONTINUOUS
10
5.8909958267716531
20
-2.0703207086614173
11
5.8896010236220473
21
-2.0624128740157479
0
LINE
8
BLACK
6
CONTINUOUS
10
5.8896010236220473
20
-2.0624128740157479
11
5.8868542913385822
21
-2.0548673228346455
0
LINE
8
BLACK
6
CONTINUOUS
10
5.8868542913385822
20
-2.0548673228346455
11
5.8828390944881885
21
-2.047913346456693
0
LINE
8
BLACK
6
CONTINUOUS
10
5.8828390944881885
20
-2.047913346456693
11
5.877677401574803
21
-2.0417622047244093
0
LINE
8
BLACK
6
CONTINUOUS
10
5.877677401574803
20
-2.0417622047244093
11
5.8715260236220468
21
-2.0366007480314958
0
LINE
8
BLACK
6
CONTINUOUS
10
5.8715260236220468
20
-2.0366007480314958
11
5.8645718897637797
21
-2.0325858267716534
0
LINE
8
BLACK
6
CONTINUOUS
10
5.8645718897637797
20
-2.0325858267716534
11
5.8570262204724406
21
-2.0298394094488188
0
LINE
8
BLACK
6
CONTINUOUS
10
5.8570262204724406
20
-2.0298394094488188
11
5.8491183070866137
21
-2.0284449212598425
0
LINE
8
BLACK
6
CONTINUOUS
10
5.8491183070866137
20
-2.0284449212598425
11
5.8451033070866139
21
-2.0284448818897638
0
LINE
8
BLACK
6
CONTINUOUS
10
5.8451033070866139
20
-2.0284448818897638
11
5.1888533464566926
21
-2.0284448818897638
0
LINE
8
BLACK
6
CONTINUOUS
10
5.1888533464566926
20
-2.0284448818897638
11
5.1888533070866139
21
-2.028444842519685
0
LINE
8
BLACK
6
CONTINUOUS
10
5.1888533070866139
20
-2.028444842519685
11
5.1888533070866139
21
-2.0284448818897638
0
LINE
8
BLACK
6
CONTINUOUS
10
5.1888533070866139
20
-2.0284448818897638
11
5.1813664173228346
21
-2.0278555118110235
0
LINE
8
BLACK
6
CONTINUOUS
10
5.1813664173228346
20
-2.0278555118110235
11
5.1740638976377955
21
-2.0261022834645668
0
LINE
8
BLACK
6
CONTINUOUS
10
5.1740638976377955
20
-2.0261022834645668
11
5.1671255118110233
21
-2.0232283070866139
0
LINE
8
BLACK
6
CONTINUOUS
10
5.1671255118110233
20
-2.0232283070866139
11
5.1607221259842522
21
-2.0193043700787401
0
LINE
8
BLACK
6
CONTINUOUS
10
5.1607221259842522
20
-2.0193043700787401
11
5.1550113385826775
21
-2.0144270866141731
0
LINE
8
BLACK
6
CONTINUOUS
10
5.1550113385826775
20
-2.0144270866141731
11
5.150133818897638
21
-2.0087164960629922
0
LINE
8
BLACK
6
CONTINUOUS
10
5.150133818897638
20
-2.0087164960629922
11
5.1462096062992124
21
-2.0023132677165352
0
LINE
8
BLACK
6
CONTINUOUS
10
5.1462096062992124
20
-2.0023132677165352
11
5.1433353543307083
21
-1.9953749999999999
0
LINE
8
BLACK
6
CONTINUOUS
10
5.1433353543307083
20
-1.9953749999999999
11
5.141581811023622
21
-1.988072559055118
0
LINE
8
BLACK
6
CONTINUOUS
10
5.141581811023622
20
-1.988072559055118
11
5.1409921259842521
21
-1.9805857086614174
0
LINE
8
BLACK
6
CONTINUOUS
10
5.1409921259842521
20
-1.9805857086614174
11
5.1409940944881889
21
-1.9805857086614174
0
LINE
8
BLACK
6
CONTINUOUS
10
5.1409940944881889
20
-1.9805857086614174
11
5.1409940944881889
21
-1.9805856692913386
0
LINE
8
BLACK
6
CONTINUOUS
10
5.1409940944881889
20
-1.9805856692913386
11
5.1409940551181101
21
-1.976570748031496
0
LINE
8
BLACK
6
CONTINUOUS
10
5.1409940551181101
20
-1.976570748031496
11
5.1395995275590547
21
-1.9686629527559054
0
LINE
8
BLACK
6
CONTINUOUS
10
5.1395995275590547
20
-1.9686629527559054
11
5.1368531102362205
21
-1.9611174409448819
0
LINE
8
BLACK
6
CONTINUOUS
10
5.1368531102362205
20
-1.9611174409448819
11
5.1328381496062994
21
-1.954163464566929
0
LINE
8
BLACK
6
CONTINUOUS
10
5.1328381496062994
20
-1.954163464566929
11
5.1276766929133855
21
-1.9480122834645668
0
LINE
8
BLACK
6
CONTINUOUS
10
5.1276766929133855
20
-1.9480122834645668
11
5.1215255118110239
21
-1.9428508267716535
0
LINE
8
BLACK
6
CONTINUOUS
10
5.1215255118110239
20
-1.9428508267716535
11
5.114571535433071
21
-1.9388358661417322
0
LINE
8
BLACK
6
CONTINUOUS
10
5.114571535433071
20
-1.9388358661417322
11
5.1070260236220468
21
-1.9360894488188976
0
LINE
8
BLACK
6
CONTINUOUS
10
5.1070260236220468
20
-1.9360894488188976
11
5.0991182283464562
21
-1.9346949212598425
0
LINE
8
BLACK
6
CONTINUOUS
10
5.0991182283464562
20
-1.9346949212598425
11
5.0951033070866139
21
-1.9346948818897638
0
LINE
8
BLACK
6
CONTINUOUS
10
5.0951033070866139
20
-1.9346948818897638
11
4.4388533858267714
21
-1.9346948818897638
  0
ENDSEC
  0
EOF
